<?xml version="1.0" encoding="UTF-8"?>
<svg version="1.1" xmlns="http://www.w3.org/2000/svg" width="600" height="600">
<path d="M0 0 C198 0 396 0 600 0 C600 198 600 396 600 600 C402 600 204 600 0 600 C0 402 0 204 0 0 Z " fill="#F7F7F7" transform="translate(0,0)"/>
<path d="M0 0 C9.49121408 4.20691651 16.00140556 13.56116028 20.19140625 22.81640625 C24.45071483 34.31859706 25.93431665 48.16344962 23.28515625 60.265625 C22.90628651 63.89862254 23.93129941 65.00736813 26.1875 67.8125 C29.01328486 71.56723382 31.06636279 74.99260761 32.8359375 79.32421875 C34.09917704 82.22797406 35.52428721 85.01417919 36.97583008 87.82714844 C40.00302547 93.70606935 42.69135056 99.31461038 44.3671875 105.7421875 C45.02846011 108.10154288 45.90651191 110.2503623 46.875 112.5 C51.99602843 125.4018158 54.46009965 136.66894479 54.5 150.625 C54.50612305 151.82237793 54.51224609 153.01975586 54.51855469 154.25341797 C54.4230138 160.91598977 53.73396663 165.92898587 51 172 C50.67128906 173.03769531 50.34257812 174.07539063 50.00390625 175.14453125 C44.03185546 192.13118156 30.55637623 204.29574918 16 214 C16.61380528 217.38729581 17.84808463 219.35363443 19.9375 222.0625 C28.85114342 234.52695825 35.07280347 248.61654836 40.25732422 262.97021484 C40.77416007 264.38276358 41.30839409 265.7890174 41.85595703 267.18994141 C44 272.68726257 44 272.68726257 44 276 C44.80322189 275.99111755 45.60644379 275.98223511 46.43400574 275.9730835 C54.0112286 275.89286688 61.58824499 275.83200005 69.16578197 275.79275131 C73.0613081 275.77189453 76.95648277 275.7436127 80.85180664 275.69824219 C84.61250058 275.65471492 88.3728569 275.63084852 92.13378334 275.62049103 C93.56711452 275.61311188 95.00042765 275.5987018 96.43361473 275.57707977 C98.44408454 275.54796043 100.45489555 275.54636538 102.46557617 275.54589844 C103.60919113 275.53701599 104.75280609 275.52813354 105.93107605 275.51898193 C109.9040395 276.14169766 111.28282753 277.01681997 114 280 C114.7548834 283.23059626 114.67002424 286.41234657 114.62818909 289.71728516 C114.63528347 290.71426737 114.64237786 291.71124958 114.64968723 292.73844337 C114.66733079 296.08903844 114.64912929 299.43848325 114.63110352 302.7890625 C114.63623987 305.18707814 114.643519 307.58509002 114.65278625 309.98309326 C114.66941567 315.82607412 114.66264156 321.66874993 114.64469803 327.51170111 C114.63067881 332.25987961 114.62677775 337.00796733 114.6301403 341.75616455 C114.63061775 342.43165584 114.63109519 343.10714713 114.6315871 343.80310786 C114.63261342 345.17530682 114.63366878 346.54750576 114.63475286 347.91970468 C114.64332271 360.05656273 114.62663581 372.19325935 114.59692383 384.33007812 C114.56808567 396.11009503 114.56100246 407.88987935 114.57641602 419.66992188 C114.59317273 432.49407921 114.59721784 445.31812609 114.57970566 458.1422863 C114.57786125 459.50946934 114.57602652 460.87665239 114.57420158 462.24383545 C114.57328949 462.91653556 114.5723774 463.58923566 114.57143768 464.28232062 C114.56582896 469.02541122 114.56914256 473.76844796 114.57574654 478.51153564 C114.58428025 484.89405792 114.57133756 491.27632 114.54389763 497.65879059 C114.53699515 500.0049871 114.53693563 502.3512149 114.54411316 504.69741058 C114.5527643 507.89289052 114.53692456 511.08732278 114.5146637 514.28271484 C114.52290446 515.21772638 114.53114523 516.15273792 114.53963572 517.11608315 C114.52306419 518.39925202 114.52306419 518.39925202 114.50615788 519.70834351 C114.50496639 520.44587042 114.50377491 521.18339733 114.50254732 521.94327354 C113.75880493 524.98711555 112.49660288 526.14296378 110 528 C107.06367487 528.50139666 107.06367487 528.50139666 103.56597042 528.50336456 C102.91898346 528.50917833 102.2719965 528.51499209 101.60540387 528.52098203 C99.42820572 528.53562956 97.25212663 528.52167609 95.07493591 528.50793457 C93.50206695 528.51254164 91.92920228 528.51889325 90.35634667 528.52684355 C86.02705967 528.54358667 81.69812405 528.53526805 77.36883557 528.52289867 C72.70279532 528.51387088 68.03681669 528.52780655 63.37078857 528.53881836 C54.2275072 528.55663208 45.08435695 528.55275104 35.94107037 528.5411678 C28.51268994 528.5321455 21.08434633 528.53090425 13.65596199 528.53526306 C12.59995749 528.53587599 11.54395298 528.53648893 10.45594834 528.53712043 C8.31091466 528.53839929 6.16588099 528.53969614 4.02084733 528.5410108 C-16.10655873 528.55242481 -36.23389198 528.53928972 -56.3612861 528.51780933 C-73.64510935 528.49993502 -90.92882517 528.50304363 -108.21264648 528.52148438 C-128.26806898 528.54287213 -148.32342763 528.55132883 -168.37885994 528.53903532 C-170.51583253 528.53776108 -172.65280514 528.5365036 -174.78977776 528.53526306 C-175.84130168 528.53464596 -176.89282561 528.53402886 -177.97621389 528.53339306 C-185.39929956 528.52993405 -192.82234485 528.53578027 -200.24542427 528.54518127 C-209.28641421 528.55637927 -218.32726517 528.55340757 -227.36823911 528.5320583 C-231.9842988 528.52151856 -236.60012645 528.5174756 -241.21618462 528.53065491 C-245.43715974 528.54252431 -249.65768651 528.53610722 -253.87862062 528.5147447 C-255.4101683 528.51025538 -256.94175342 528.51259674 -258.47327728 528.52224785 C-260.54666951 528.53431714 -262.61850243 528.52203707 -264.69181156 528.50336456 C-265.84589168 528.50271515 -266.99997179 528.50206574 -268.18902403 528.50139666 C-271 528 -271 528 -272.87049198 526.23791891 C-274.09153925 523.81863128 -274.3765783 522.38208962 -274.38031673 519.68993282 C-274.38875668 518.83038681 -274.39719662 517.9708408 -274.40589231 517.08524793 C-274.39988227 516.14566333 -274.39387222 515.20607872 -274.38768005 514.23802185 C-274.39306559 513.23625052 -274.39845113 512.23447919 -274.40399987 511.20235115 C-274.41834056 507.83586736 -274.41116059 504.46977338 -274.40405273 501.10327148 C-274.40975302 498.69378339 -274.41671594 496.284298 -274.42485046 493.87481689 C-274.44096398 488.00417967 -274.44287538 482.13364122 -274.43763756 476.26299363 C-274.4335983 471.49288967 -274.4350365 466.72281736 -274.44038582 461.95271492 C-274.44113424 461.27415954 -274.44188266 460.59560417 -274.44265376 459.89648651 C-274.44418521 458.51808483 -274.44572356 457.13968316 -274.44726873 455.7612815 C-274.46099898 442.83305985 -274.45555195 429.90489871 -274.44408352 416.97667844 C-274.43414601 405.14192265 -274.44709975 393.30732309 -274.47101771 381.47259139 C-274.49538157 369.32593068 -274.50502357 357.17934282 -274.49836498 345.03265816 C-274.49486729 338.21103595 -274.49714116 331.389534 -274.51461601 324.56793022 C-274.53083572 318.15671084 -274.52619882 311.74571705 -274.50731087 305.33450317 C-274.503608 302.97658917 -274.50678242 300.61865326 -274.51719666 298.26075935 C-274.53029182 295.05181986 -274.51896099 291.84388945 -274.50120544 288.63499451 C-274.51081045 287.69317918 -274.52041546 286.75136385 -274.53031152 285.78100866 C-274.45867772 279.52627712 -274.45867772 279.52627712 -272.18638706 276.91909885 C-268.94949241 275.55839461 -265.83809213 275.63090336 -262.390625 275.70703125 C-261.66381531 275.71127609 -260.93700562 275.71552094 -260.18817139 275.71989441 C-257.87506496 275.7366387 -255.56284145 275.77428115 -253.25 275.8125 C-251.67839803 275.82755242 -250.10678236 275.84123985 -248.53515625 275.85351562 C-244.68976585 275.88652805 -240.84503244 275.93827944 -237 276 C-237.26989746 275.12972168 -237.53979492 274.25944336 -237.81787109 273.36279297 C-238.35275146 271.63246826 -238.35275146 271.63246826 -238.8984375 269.8671875 C-239.25083496 268.72878418 -239.60323242 267.59038086 -239.96630859 266.41748047 C-242.70219722 257.3723768 -244.46851816 248.51759564 -245.5703125 239.15234375 C-245.90350259 235.98082104 -245.90350259 235.98082104 -247 233 C-247.13259329 230.54016582 -247.21218821 228.1096496 -247.23828125 225.6484375 C-247.246353 224.91613922 -247.25442474 224.18384094 -247.26274109 223.42935181 C-247.27657978 221.87089392 -247.28730291 220.31240574 -247.29516602 218.75390625 C-247.30654005 217.19294058 -247.32675195 215.63200907 -247.35668945 214.07128906 C-247.59851942 201.4420907 -246.00684286 190.02052859 -242 178 C-241.30328836 167.70105363 -241.30328836 167.70105363 -244 158 C-246.07624585 156.0679986 -248.2429851 154.41531714 -250.546875 152.76171875 C-252.9343986 151.04711183 -255.1564888 149.23931806 -257.375 147.3125 C-258.00148438 146.77238281 -258.62796875 146.23226562 -259.2734375 145.67578125 C-263.86752132 141.21681754 -265.12943893 137.55936251 -265.25 131.25 C-265.13171914 125.04480434 -264.28193602 120.52789319 -260.04296875 115.83203125 C-253.36807064 109.58923898 -247.25214021 106.24262781 -237.97265625 106.5234375 C-229.21467934 107.92747585 -221.37197849 113.03020227 -216 120 C-201.93836335 140.05949115 -204.00233567 165.90687729 -203.75390625 189.3515625 C-203.74552231 190.12691786 -203.73713837 190.90227322 -203.72850037 191.70112419 C-203.65069965 198.99484128 -203.58028081 206.28860998 -203.52319336 213.58251953 C-203.49122032 217.61275374 -203.4499488 221.64280729 -203.40299797 225.67289352 C-203.38714749 227.18852881 -203.37474946 228.7042048 -203.36609077 230.21989822 C-203.31778443 245.37188304 -203.31778443 245.37188304 -198.5 259.5625 C-198.0771875 260.38878906 -197.654375 261.21507812 -197.21875 262.06640625 C-196.14200285 264.14491528 -196.14200285 264.14491528 -194 265 C-192.46331135 265.22467831 -190.92031946 265.40796805 -189.375 265.5625 C-188.55773437 265.64628906 -187.74046875 265.73007812 -186.8984375 265.81640625 C-186.27195312 265.87699219 -185.64546875 265.93757813 -185 266 C-184.9175 265.195625 -184.835 264.39125 -184.75 263.5625 C-183.13481302 255.89036184 -179.04075576 248.92893959 -175.25 242.125 C-174.81606934 241.34487549 -174.38213867 240.56475098 -173.93505859 239.76098633 C-169.80746528 232.46023954 -165.15264092 225.77763816 -159.7734375 219.33203125 C-157.79822671 217.22296466 -157.79822671 217.22296466 -158 215 C-159.60414836 213.77664947 -161.26105252 212.62223096 -162.9375 211.5 C-172.38716968 204.76756525 -179.48668954 196.21114735 -185 186 C-185 185.34 -185 184.68 -185 184 C-185.66 184 -186.32 184 -187 184 C-193.97129525 166.2524659 -196.62624181 147.72830306 -192 129 C-191.67933779 127.12637864 -191.36711043 125.25129788 -191.0625 123.375 C-190.34953198 119.39240519 -189.3027561 115.87982873 -187.78125 112.14453125 C-186.83550056 109.54844902 -186.20383215 106.93732111 -185.5625 104.25 C-183.50545385 95.76468464 -181.04855121 87.5237356 -176.9296875 79.796875 C-176.03224773 78.06232755 -175.293286 76.24857836 -174.5625 74.4375 C-173 71 -173 71 -170.44140625 68.171875 C-166.50602693 62.75133889 -167.33587984 56.23798652 -167.375 49.8125 C-167.375 40.38808512 -166.77505317 32.03901922 -164 23 C-163.49146484 21.31583984 -163.49146484 21.31583984 -162.97265625 19.59765625 C-160.2748063 12.08304415 -157.42083955 6.71041978 -150 3 C-145.03343575 2.19920218 -141.2424912 2.35486034 -136.75 4.6875 C-135.8425 5.450625 -134.935 6.21375 -134 7 C-133.05125 7.680625 -132.1025 8.36125 -131.125 9.0625 C-122.59463973 16.31666464 -116.16272846 27.69229143 -112 38 C-111.3428399 39.3380444 -110.67818526 40.67248843 -110 42 C-108.88625 41.401875 -107.7725 40.80375 -106.625 40.1875 C-86.22396085 31.36797385 -57.76439439 32.02249096 -37 39 C-36.34 39.33 -35.68 39.66 -35 40 C-34.79697266 39.12601563 -34.79697266 39.12601563 -34.58984375 38.234375 C-30.85108233 24.07164962 -20.84727621 9.90519119 -9.4375 1 C-5.91190497 -0.44639796 -3.79971828 -0.56995774 0 0 Z " fill="#F5C70A" transform="translate(386,16)"/>
<path d="M0 0 C9.49121408 4.20691651 16.00140556 13.56116028 20.19140625 22.81640625 C24.45071483 34.31859706 25.93431665 48.16344962 23.28515625 60.265625 C22.90628651 63.89862254 23.93129941 65.00736813 26.1875 67.8125 C29.01328486 71.56723382 31.06636279 74.99260761 32.8359375 79.32421875 C34.09917704 82.22797406 35.52428721 85.01417919 36.97583008 87.82714844 C40.00302547 93.70606935 42.69135056 99.31461038 44.3671875 105.7421875 C45.02846011 108.10154288 45.90651191 110.2503623 46.875 112.5 C51.99602843 125.4018158 54.46009965 136.66894479 54.5 150.625 C54.50612305 151.82237793 54.51224609 153.01975586 54.51855469 154.25341797 C54.4230138 160.91598977 53.73396663 165.92898587 51 172 C50.67128906 173.03769531 50.34257812 174.07539063 50.00390625 175.14453125 C44.03185546 192.13118156 30.55637623 204.29574918 16 214 C16.61380528 217.38729581 17.84808463 219.35363443 19.9375 222.0625 C28.85114342 234.52695825 35.07280347 248.61654836 40.25732422 262.97021484 C40.77416007 264.38276358 41.30839409 265.7890174 41.85595703 267.18994141 C44 272.68726257 44 272.68726257 44 276 C44.80322189 275.99111755 45.60644379 275.98223511 46.43400574 275.9730835 C54.0112286 275.89286688 61.58824499 275.83200005 69.16578197 275.79275131 C73.0613081 275.77189453 76.95648277 275.7436127 80.85180664 275.69824219 C84.61250058 275.65471492 88.3728569 275.63084852 92.13378334 275.62049103 C93.56711452 275.61311188 95.00042765 275.5987018 96.43361473 275.57707977 C98.44408454 275.54796043 100.45489555 275.54636538 102.46557617 275.54589844 C103.60919113 275.53701599 104.75280609 275.52813354 105.93107605 275.51898193 C109.9040395 276.14169766 111.28282753 277.01681997 114 280 C114.7548834 283.23059626 114.67002424 286.41234657 114.62818909 289.71728516 C114.63528347 290.71426737 114.64237786 291.71124958 114.64968723 292.73844337 C114.66733079 296.08903844 114.64912929 299.43848325 114.63110352 302.7890625 C114.63623987 305.18707814 114.643519 307.58509002 114.65278625 309.98309326 C114.66941567 315.82607412 114.66264156 321.66874993 114.64469803 327.51170111 C114.63067881 332.25987961 114.62677775 337.00796733 114.6301403 341.75616455 C114.63061775 342.43165584 114.63109519 343.10714713 114.6315871 343.80310786 C114.63261342 345.17530682 114.63366878 346.54750576 114.63475286 347.91970468 C114.64332271 360.05656273 114.62663581 372.19325935 114.59692383 384.33007812 C114.56808567 396.11009503 114.56100246 407.88987935 114.57641602 419.66992188 C114.59317273 432.49407921 114.59721784 445.31812609 114.57970566 458.1422863 C114.57786125 459.50946934 114.57602652 460.87665239 114.57420158 462.24383545 C114.57328949 462.91653556 114.5723774 463.58923566 114.57143768 464.28232062 C114.56582896 469.02541122 114.56914256 473.76844796 114.57574654 478.51153564 C114.58428025 484.89405792 114.57133756 491.27632 114.54389763 497.65879059 C114.53699515 500.0049871 114.53693563 502.3512149 114.54411316 504.69741058 C114.5527643 507.89289052 114.53692456 511.08732278 114.5146637 514.28271484 C114.52290446 515.21772638 114.53114523 516.15273792 114.53963572 517.11608315 C114.52306419 518.39925202 114.52306419 518.39925202 114.50615788 519.70834351 C114.50496639 520.44587042 114.50377491 521.18339733 114.50254732 521.94327354 C113.75880493 524.98711555 112.49660288 526.14296378 110 528 C107.06367487 528.50139666 107.06367487 528.50139666 103.56597042 528.50336456 C102.91898346 528.50917833 102.2719965 528.51499209 101.60540387 528.52098203 C99.42820572 528.53562956 97.25212663 528.52167609 95.07493591 528.50793457 C93.50206695 528.51254164 91.92920228 528.51889325 90.35634667 528.52684355 C86.02705967 528.54358667 81.69812405 528.53526805 77.36883557 528.52289867 C72.70279532 528.51387088 68.03681669 528.52780655 63.37078857 528.53881836 C54.2275072 528.55663208 45.08435695 528.55275104 35.94107037 528.5411678 C28.51268994 528.5321455 21.08434633 528.53090425 13.65596199 528.53526306 C12.59995749 528.53587599 11.54395298 528.53648893 10.45594834 528.53712043 C8.31091466 528.53839929 6.16588099 528.53969614 4.02084733 528.5410108 C-16.10655873 528.55242481 -36.23389198 528.53928972 -56.3612861 528.51780933 C-73.64510935 528.49993502 -90.92882517 528.50304363 -108.21264648 528.52148438 C-128.26806898 528.54287213 -148.32342763 528.55132883 -168.37885994 528.53903532 C-170.51583253 528.53776108 -172.65280514 528.5365036 -174.78977776 528.53526306 C-175.84130168 528.53464596 -176.89282561 528.53402886 -177.97621389 528.53339306 C-185.39929956 528.52993405 -192.82234485 528.53578027 -200.24542427 528.54518127 C-209.28641421 528.55637927 -218.32726517 528.55340757 -227.36823911 528.5320583 C-231.9842988 528.52151856 -236.60012645 528.5174756 -241.21618462 528.53065491 C-245.43715974 528.54252431 -249.65768651 528.53610722 -253.87862062 528.5147447 C-255.4101683 528.51025538 -256.94175342 528.51259674 -258.47327728 528.52224785 C-260.54666951 528.53431714 -262.61850243 528.52203707 -264.69181156 528.50336456 C-265.84589168 528.50271515 -266.99997179 528.50206574 -268.18902403 528.50139666 C-271 528 -271 528 -272.87049198 526.23791891 C-274.09153925 523.81863128 -274.3765783 522.38208962 -274.38031673 519.68993282 C-274.38875668 518.83038681 -274.39719662 517.9708408 -274.40589231 517.08524793 C-274.39988227 516.14566333 -274.39387222 515.20607872 -274.38768005 514.23802185 C-274.39306559 513.23625052 -274.39845113 512.23447919 -274.40399987 511.20235115 C-274.41834056 507.83586736 -274.41116059 504.46977338 -274.40405273 501.10327148 C-274.40975302 498.69378339 -274.41671594 496.284298 -274.42485046 493.87481689 C-274.44096398 488.00417967 -274.44287538 482.13364122 -274.43763756 476.26299363 C-274.4335983 471.49288967 -274.4350365 466.72281736 -274.44038582 461.95271492 C-274.44113424 461.27415954 -274.44188266 460.59560417 -274.44265376 459.89648651 C-274.44418521 458.51808483 -274.44572356 457.13968316 -274.44726873 455.7612815 C-274.46099898 442.83305985 -274.45555195 429.90489871 -274.44408352 416.97667844 C-274.43414601 405.14192265 -274.44709975 393.30732309 -274.47101771 381.47259139 C-274.49538157 369.32593068 -274.50502357 357.17934282 -274.49836498 345.03265816 C-274.49486729 338.21103595 -274.49714116 331.389534 -274.51461601 324.56793022 C-274.53083572 318.15671084 -274.52619882 311.74571705 -274.50731087 305.33450317 C-274.503608 302.97658917 -274.50678242 300.61865326 -274.51719666 298.26075935 C-274.53029182 295.05181986 -274.51896099 291.84388945 -274.50120544 288.63499451 C-274.51081045 287.69317918 -274.52041546 286.75136385 -274.53031152 285.78100866 C-274.45867772 279.52627712 -274.45867772 279.52627712 -272.18638706 276.91909885 C-268.94949241 275.55839461 -265.83809213 275.63090336 -262.390625 275.70703125 C-261.66381531 275.71127609 -260.93700562 275.71552094 -260.18817139 275.71989441 C-257.87506496 275.7366387 -255.56284145 275.77428115 -253.25 275.8125 C-251.67839803 275.82755242 -250.10678236 275.84123985 -248.53515625 275.85351562 C-244.68976585 275.88652805 -240.84503244 275.93827944 -237 276 C-237.26989746 275.12972168 -237.53979492 274.25944336 -237.81787109 273.36279297 C-238.35275146 271.63246826 -238.35275146 271.63246826 -238.8984375 269.8671875 C-239.25083496 268.72878418 -239.60323242 267.59038086 -239.96630859 266.41748047 C-242.70219722 257.3723768 -244.46851816 248.51759564 -245.5703125 239.15234375 C-245.90350259 235.98082104 -245.90350259 235.98082104 -247 233 C-247.13259329 230.54016582 -247.21218821 228.1096496 -247.23828125 225.6484375 C-247.246353 224.91613922 -247.25442474 224.18384094 -247.26274109 223.42935181 C-247.27657978 221.87089392 -247.28730291 220.31240574 -247.29516602 218.75390625 C-247.30654005 217.19294058 -247.32675195 215.63200907 -247.35668945 214.07128906 C-247.59851942 201.4420907 -246.00684286 190.02052859 -242 178 C-241.30328836 167.70105363 -241.30328836 167.70105363 -244 158 C-246.07624585 156.0679986 -248.2429851 154.41531714 -250.546875 152.76171875 C-252.9343986 151.04711183 -255.1564888 149.23931806 -257.375 147.3125 C-258.00148438 146.77238281 -258.62796875 146.23226562 -259.2734375 145.67578125 C-263.86752132 141.21681754 -265.12943893 137.55936251 -265.25 131.25 C-265.13171914 125.04480434 -264.28193602 120.52789319 -260.04296875 115.83203125 C-253.36807064 109.58923898 -247.25214021 106.24262781 -237.97265625 106.5234375 C-229.21467934 107.92747585 -221.37197849 113.03020227 -216 120 C-201.93836335 140.05949115 -204.00233567 165.90687729 -203.75390625 189.3515625 C-203.74552231 190.12691786 -203.73713837 190.90227322 -203.72850037 191.70112419 C-203.65069965 198.99484128 -203.58028081 206.28860998 -203.52319336 213.58251953 C-203.49122032 217.61275374 -203.4499488 221.64280729 -203.40299797 225.67289352 C-203.38714749 227.18852881 -203.37474946 228.7042048 -203.36609077 230.21989822 C-203.31778443 245.37188304 -203.31778443 245.37188304 -198.5 259.5625 C-198.0771875 260.38878906 -197.654375 261.21507812 -197.21875 262.06640625 C-196.14200285 264.14491528 -196.14200285 264.14491528 -194 265 C-192.46331135 265.22467831 -190.92031946 265.40796805 -189.375 265.5625 C-188.55773437 265.64628906 -187.74046875 265.73007812 -186.8984375 265.81640625 C-186.27195312 265.87699219 -185.64546875 265.93757813 -185 266 C-184.9175 265.195625 -184.835 264.39125 -184.75 263.5625 C-183.13481302 255.89036184 -179.04075576 248.92893959 -175.25 242.125 C-174.81606934 241.34487549 -174.38213867 240.56475098 -173.93505859 239.76098633 C-169.80746528 232.46023954 -165.15264092 225.77763816 -159.7734375 219.33203125 C-157.79822671 217.22296466 -157.79822671 217.22296466 -158 215 C-159.60414836 213.77664947 -161.26105252 212.62223096 -162.9375 211.5 C-172.38716968 204.76756525 -179.48668954 196.21114735 -185 186 C-185 185.34 -185 184.68 -185 184 C-185.66 184 -186.32 184 -187 184 C-193.97129525 166.2524659 -196.62624181 147.72830306 -192 129 C-191.67933779 127.12637864 -191.36711043 125.25129788 -191.0625 123.375 C-190.34953198 119.39240519 -189.3027561 115.87982873 -187.78125 112.14453125 C-186.83550056 109.54844902 -186.20383215 106.93732111 -185.5625 104.25 C-183.50545385 95.76468464 -181.04855121 87.5237356 -176.9296875 79.796875 C-176.03224773 78.06232755 -175.293286 76.24857836 -174.5625 74.4375 C-173 71 -173 71 -170.44140625 68.171875 C-166.50602693 62.75133889 -167.33587984 56.23798652 -167.375 49.8125 C-167.375 40.38808512 -166.77505317 32.03901922 -164 23 C-163.49146484 21.31583984 -163.49146484 21.31583984 -162.97265625 19.59765625 C-160.2748063 12.08304415 -157.42083955 6.71041978 -150 3 C-145.03343575 2.19920218 -141.2424912 2.35486034 -136.75 4.6875 C-135.8425 5.450625 -134.935 6.21375 -134 7 C-133.05125 7.680625 -132.1025 8.36125 -131.125 9.0625 C-122.59463973 16.31666464 -116.16272846 27.69229143 -112 38 C-111.3428399 39.3380444 -110.67818526 40.67248843 -110 42 C-108.88625 41.401875 -107.7725 40.80375 -106.625 40.1875 C-86.22396085 31.36797385 -57.76439439 32.02249096 -37 39 C-36.34 39.33 -35.68 39.66 -35 40 C-34.79697266 39.12601563 -34.79697266 39.12601563 -34.58984375 38.234375 C-30.85108233 24.07164962 -20.84727621 9.90519119 -9.4375 1 C-5.91190497 -0.44639796 -3.79971828 -0.56995774 0 0 Z M-266 284 C-266 361.88 -266 439.76 -266 520 C-143.57 520 -21.14 520 105 520 C105 442.45 105 364.9 105 285 C85.86 285 66.72 285 47 285 C47 294.57 47 304.14 47 314 C45.76674938 330.03225806 45.76674938 330.03225806 39 337 C30.28226876 343.8146922 18.4755622 342.80515359 8 342 C-0.20318548 340.3229043 -7.22950428 336.57248133 -12.375 329.9375 C-15.40712945 324.45634291 -15.21440173 319.32375122 -15.25 313.1875 C-15.2809375 311.87168945 -15.2809375 311.87168945 -15.3125 310.52929688 C-15.33767595 306.32176638 -15.22687888 303.50696904 -13.484375 299.61328125 C-11.2400095 294.80107293 -11.2400095 294.80107293 -12 284 C-51.27 284 -90.54 284 -131 284 C-131.18274002 293.28189729 -131.18274002 293.28189729 -128 300 C-127.50128366 303.60752997 -127.49021547 307.17510111 -127.5 310.8125 C-127.47164062 311.75931641 -127.44328125 312.70613281 -127.4140625 313.68164062 C-127.39503305 320.59408795 -128.94117384 325.3847704 -133 331 C-141.40974861 339.40974861 -151.57602603 340.19905649 -162.875 340.3125 C-164.30779297 340.35600586 -164.30779297 340.35600586 -165.76953125 340.40039062 C-172.04843809 340.45637539 -176.81068771 339.69407302 -182 336 C-183.76953125 334.10546875 -183.76953125 334.10546875 -184.8125 332.1875 C-185.16957031 331.56230469 -185.52664062 330.93710937 -185.89453125 330.29296875 C-186.44173828 329.15794922 -186.44173828 329.15794922 -187 328 C-187.80244141 326.41832031 -187.80244141 326.41832031 -188.62109375 324.8046875 C-190.42381277 320.53015787 -190.37220948 316.51653644 -190.25 311.9375 C-190.24484375 311.16083984 -190.2396875 310.38417969 -190.234375 309.58398438 C-190.17494712 305.1974642 -189.7334842 301.4009052 -189 297 C-189 292.71 -189 288.42 -189 284 C-214.41 284 -239.82 284 -266 284 Z " fill="#37383A" transform="translate(386,16)"/>
<path d="M0 0 C9.78882352 6.32487021 16.02144352 16.50842379 18.7265625 27.76171875 C22.22860378 44.19796582 21.79538953 61.38433449 21.97265625 78.11328125 C21.98104019 78.88863661 21.98942413 79.66399197 21.99806213 80.46284294 C22.07586285 87.75656003 22.14628169 95.05032873 22.20336914 102.34423828 C22.23534218 106.37447249 22.2766137 110.40452604 22.32356453 114.43461227 C22.33941501 115.95024756 22.35181304 117.46592355 22.36047173 118.98161697 C22.40877807 134.13360179 22.40877807 134.13360179 27.2265625 148.32421875 C27.649375 149.15050781 28.0721875 149.97679687 28.5078125 150.828125 C29.58455965 152.90663403 29.58455965 152.90663403 31.7265625 153.76171875 C33.26325115 153.98639706 34.80624304 154.1696868 36.3515625 154.32421875 C37.16882813 154.40800781 37.98609375 154.49179687 38.828125 154.578125 C39.45460938 154.63871094 40.08109375 154.69929687 40.7265625 154.76171875 C40.8090625 153.95734375 40.8915625 153.15296875 40.9765625 152.32421875 C42.59174948 144.65208059 46.68580674 137.69065834 50.4765625 130.88671875 C50.91049316 130.10659424 51.34442383 129.32646973 51.79150391 128.52270508 C55.34305766 122.24083748 59.24508259 116.42717042 63.7265625 110.76171875 C64.40589844 109.85164063 65.08523437 108.9415625 65.78515625 108.00390625 C67.7265625 105.76171875 67.7265625 105.76171875 70.4140625 105.19921875 C73.3460344 105.69710077 75.10113903 106.31752254 77.7265625 107.57421875 C89.88048325 113.36375532 104.05859554 113.86768414 117.296875 114.04296875 C118.377341 114.06137817 119.45780701 114.0797876 120.5710144 114.09875488 C125.15743917 114.17681322 129.74399602 114.24508582 134.33056641 114.31396484 C137.69440436 114.36590681 141.05812671 114.42305415 144.421875 114.48046875 C145.45120148 114.49404419 146.48052795 114.50761963 147.54104614 114.52160645 C152.70306609 114.61043795 157.61375153 114.9999907 162.7265625 115.76171875 C165.7087753 115.94134535 168.6887697 115.99482208 171.67578125 116.03515625 C172.52231766 116.04777496 173.36885406 116.06039368 174.24104309 116.07339478 C199.10994064 116.37267525 218.4471833 114.39201644 240.7265625 102.76171875 C241.2421875 103.71046875 241.7578125 104.65921875 242.2890625 105.63671875 C244.05403021 108.74737186 246.02955863 111.61742202 248.12890625 114.51171875 C251.78785229 119.67774867 254.6042645 125.03927198 257.2890625 130.76171875 C257.75940918 131.75341064 258.22975586 132.74510254 258.71435547 133.7668457 C263.36055455 143.77052771 267.10050835 154.04135997 269.7265625 164.76171875 C270.52978439 164.7528363 271.33300629 164.74395386 272.16056824 164.73480225 C279.7377911 164.65458563 287.31480749 164.5937188 294.89234447 164.55447006 C298.7878706 164.53361328 302.68304527 164.50533145 306.57836914 164.45996094 C310.33906308 164.41643367 314.0994194 164.39256727 317.86034584 164.38220978 C319.29367702 164.37483063 320.72699015 164.36042055 322.16017723 164.33879852 C324.17064704 164.30967918 326.18145805 164.30808413 328.19213867 164.30761719 C329.90756111 164.29429352 329.90756111 164.29429352 331.65763855 164.28070068 C335.630602 164.90341641 337.00939003 165.77853872 339.7265625 168.76171875 C340.4814459 171.99231501 340.39658674 175.17406532 340.35475159 178.47900391 C340.36184597 179.47598612 340.36894036 180.47296833 340.37624973 181.50016212 C340.39389329 184.85075719 340.37569179 188.200202 340.35766602 191.55078125 C340.36280237 193.94879689 340.3700815 196.34680877 340.37934875 198.74481201 C340.39597817 204.58779287 340.38920406 210.43046868 340.37126053 216.27341986 C340.35724131 221.02159836 340.35334025 225.76968608 340.3567028 230.5178833 C340.35718025 231.19337459 340.35765769 231.86886588 340.3581496 232.56482661 C340.35917592 233.93702557 340.36023128 235.30922451 340.36131536 236.68142343 C340.36988521 248.81828148 340.35319831 260.9549781 340.32348633 273.09179688 C340.29464817 284.87181378 340.28756496 296.6515981 340.30297852 308.43164062 C340.31973523 321.25579796 340.32378034 334.07984484 340.30626816 346.90400505 C340.30442375 348.27118809 340.30258902 349.63837114 340.30076408 351.0055542 C340.29985199 351.67825431 340.2989399 352.35095441 340.29800018 353.04403937 C340.29239146 357.78712997 340.29570506 362.53016671 340.30230904 367.27325439 C340.31084275 373.65577667 340.29790006 380.03803875 340.27046013 386.42050934 C340.26355765 388.76670585 340.26349813 391.11293365 340.27067566 393.45912933 C340.2793268 396.65460927 340.26348706 399.84904153 340.2412262 403.04443359 C340.25358735 404.4469509 340.25358735 404.4469509 340.26619822 405.8778019 C340.25515053 406.73324781 340.24410284 407.58869373 340.23272038 408.47006226 C340.23093315 409.57635262 340.23093315 409.57635262 340.22910982 410.70499229 C339.48536743 413.7488343 338.22316538 414.90468253 335.7265625 416.76171875 C332.79023737 417.26311541 332.79023737 417.26311541 329.29253292 417.26508331 C328.64554596 417.27089708 327.998559 417.27671084 327.33196637 417.28270078 C325.15476822 417.29734831 322.97868913 417.28339484 320.80149841 417.26965332 C319.22862945 417.27426039 317.65576478 417.280612 316.08290917 417.2885623 C311.75362217 417.30530542 307.42468655 417.2969868 303.09539807 417.28461742 C298.42935782 417.27558963 293.76337919 417.2895253 289.09735107 417.30053711 C279.9540697 417.31835083 270.81091945 417.31446979 261.66763287 417.30288655 C254.23925244 417.29386425 246.81090883 417.292623 239.38252449 417.29698181 C238.32651999 417.29759474 237.27051548 417.29820768 236.18251084 417.29883918 C234.03747716 417.30011804 231.89244349 417.30141489 229.74740983 417.30272955 C209.62000377 417.31414356 189.49267052 417.30100847 169.3652764 417.27952808 C152.08145315 417.26165377 134.79773733 417.26476238 117.51391602 417.28320312 C97.45849352 417.30459088 77.40313487 417.31304758 57.34770256 417.30075407 C55.21072997 417.29947983 53.07375736 417.29822235 50.93678474 417.29698181 C49.88526082 417.29636471 48.83373689 417.29574761 47.75034861 417.29511181 C40.32726294 417.2916528 32.90421765 417.29749902 25.48113823 417.30690002 C16.44014829 417.31809802 7.39929733 417.31512632 -1.64167661 417.29377705 C-6.2577363 417.28323731 -10.87356395 417.27919435 -15.48962212 417.29237366 C-19.71059724 417.30424306 -23.93112401 417.29782597 -28.15205812 417.27646345 C-29.6836058 417.27197413 -31.21519092 417.27431549 -32.74671478 417.2839666 C-34.82010701 417.29603589 -36.89193993 417.28375582 -38.96524906 417.26508331 C-40.11932918 417.2644339 -41.27340929 417.26378449 -42.46246153 417.26311541 C-45.2734375 416.76171875 -45.2734375 416.76171875 -47.14392948 414.99963766 C-48.36497675 412.58035003 -48.6500158 411.14380837 -48.65375423 408.45165157 C-48.66219418 407.59210556 -48.67063412 406.73255955 -48.67932981 405.84696668 C-48.67331977 404.90738208 -48.66730972 403.96779747 -48.66111755 402.9997406 C-48.66650309 401.99796927 -48.67188863 400.99619794 -48.67743737 399.9640699 C-48.69177806 396.59758611 -48.68459809 393.23149213 -48.67749023 389.86499023 C-48.68319052 387.45550214 -48.69015344 385.04601675 -48.69828796 382.63653564 C-48.71440148 376.76589842 -48.71631288 370.89535997 -48.71107506 365.02471238 C-48.7070358 360.25460842 -48.708474 355.48453611 -48.71382332 350.71443367 C-48.71457174 350.03587829 -48.71532016 349.35732292 -48.71609126 348.65820526 C-48.71762271 347.27980358 -48.71916106 345.90140191 -48.72070623 344.52300025 C-48.73443648 331.5947786 -48.72898945 318.66661746 -48.71752102 305.73839719 C-48.70758351 293.9036414 -48.72053725 282.06904184 -48.74445521 270.23431014 C-48.76881907 258.08764943 -48.77846107 245.94106157 -48.77180248 233.79437691 C-48.76830479 226.9727547 -48.77057866 220.15125275 -48.78805351 213.32964897 C-48.80427322 206.91842959 -48.79963632 200.5074358 -48.78074837 194.09622192 C-48.7770455 191.73830792 -48.78021992 189.38037201 -48.79063416 187.0224781 C-48.80372932 183.81353861 -48.79239849 180.6056082 -48.77464294 177.39671326 C-48.78424795 176.45489793 -48.79385296 175.5130826 -48.80374902 174.54272741 C-48.73211522 168.28799587 -48.73211522 168.28799587 -46.45982456 165.6808176 C-43.22292991 164.32011336 -40.11152963 164.39262211 -36.6640625 164.46875 C-35.93725281 164.47299484 -35.21044312 164.47723969 -34.46160889 164.48161316 C-32.14850246 164.49835745 -29.83627895 164.5359999 -27.5234375 164.57421875 C-25.95183553 164.58927117 -24.38021986 164.6029586 -22.80859375 164.61523438 C-18.96320335 164.6482468 -15.11846994 164.69999819 -11.2734375 164.76171875 C-11.54333496 163.89144043 -11.81323242 163.02116211 -12.09130859 162.12451172 C-12.44789551 160.97096191 -12.80448242 159.81741211 -13.171875 158.62890625 C-13.52427246 157.49050293 -13.87666992 156.35209961 -14.23974609 155.17919922 C-16.97563472 146.13409555 -18.74195566 137.27931439 -19.84375 127.9140625 C-20.17694009 124.74253979 -20.17694009 124.74253979 -21.2734375 121.76171875 C-21.40603079 119.30188457 -21.48562571 116.87136835 -21.51171875 114.41015625 C-21.5197905 113.67785797 -21.52786224 112.94555969 -21.53617859 112.19107056 C-21.55001728 110.63261267 -21.56074041 109.07412449 -21.56860352 107.515625 C-21.57997755 105.95465933 -21.60018945 104.39372782 -21.63012695 102.83300781 C-21.87195692 90.20380945 -20.28028036 78.78224734 -16.2734375 66.76171875 C-15.57672586 56.46277238 -15.57672586 56.46277238 -18.2734375 46.76171875 C-20.34968335 44.82971735 -22.5164226 43.17703589 -24.8203125 41.5234375 C-27.2078361 39.80883058 -29.4299263 38.00103681 -31.6484375 36.07421875 C-32.58816406 35.26404297 -32.58816406 35.26404297 -33.546875 34.4375 C-38.14095882 29.97853629 -39.40287643 26.32108126 -39.5234375 20.01171875 C-39.40515664 13.80652309 -38.55537352 9.28961194 -34.31640625 4.59375 C-23.54689455 -5.47858718 -12.96188736 -7.18430191 0 0 Z M-40.2734375 172.76171875 C-40.2734375 250.64171875 -40.2734375 328.52171875 -40.2734375 408.76171875 C82.1565625 408.76171875 204.5865625 408.76171875 330.7265625 408.76171875 C330.7265625 331.21171875 330.7265625 253.66171875 330.7265625 173.76171875 C311.5865625 173.76171875 292.4465625 173.76171875 272.7265625 173.76171875 C272.7265625 183.33171875 272.7265625 192.90171875 272.7265625 202.76171875 C271.49331188 218.79397681 271.49331188 218.79397681 264.7265625 225.76171875 C256.00883126 232.57641095 244.2021247 231.56687234 233.7265625 230.76171875 C225.52337702 229.08462305 218.49705822 225.33420008 213.3515625 218.69921875 C210.31943305 213.21806166 210.51216077 208.08546997 210.4765625 201.94921875 C210.445625 200.6334082 210.445625 200.6334082 210.4140625 199.29101562 C210.38888655 195.08348513 210.49968362 192.26868779 212.2421875 188.375 C214.486553 183.56279168 214.486553 183.56279168 213.7265625 172.76171875 C174.4565625 172.76171875 135.1865625 172.76171875 94.7265625 172.76171875 C94.54382248 182.04361604 94.54382248 182.04361604 97.7265625 188.76171875 C98.22527884 192.36924872 98.23634703 195.93681986 98.2265625 199.57421875 C98.25492188 200.52103516 98.28328125 201.46785156 98.3125 202.44335938 C98.33152945 209.3558067 96.78538866 214.14648915 92.7265625 219.76171875 C84.31681389 228.17146736 74.15053647 228.96077524 62.8515625 229.07421875 C61.41876953 229.11772461 61.41876953 229.11772461 59.95703125 229.16210938 C53.67812441 229.21809414 48.91587479 228.45579177 43.7265625 224.76171875 C41.95703125 222.8671875 41.95703125 222.8671875 40.9140625 220.94921875 C40.55699219 220.32402344 40.19992188 219.69882812 39.83203125 219.0546875 C39.28482422 217.91966797 39.28482422 217.91966797 38.7265625 216.76171875 C37.92412109 215.18003906 37.92412109 215.18003906 37.10546875 213.56640625 C35.30274973 209.29187662 35.35435302 205.27825519 35.4765625 200.69921875 C35.48171875 199.92255859 35.486875 199.14589844 35.4921875 198.34570312 C35.55161538 193.95918295 35.9930783 190.16262395 36.7265625 185.76171875 C36.7265625 181.47171875 36.7265625 177.18171875 36.7265625 172.76171875 C11.3165625 172.76171875 -14.0934375 172.76171875 -40.2734375 172.76171875 Z " fill="#343332" transform="translate(160.2734375,127.23828125)"/>
<path d="M0 0 C0.33 0.99 0.66 1.98 1 3 C-0.56851486 5.95289971 -2.86327188 8.43938654 -5 11 C-5.67804688 11.825 -6.35609375 12.65 -7.0546875 13.5 C-17.46400939 25.65038285 -30.34022256 32.17314047 -45.5 36.75 C-46.15105713 36.94867676 -46.80211426 37.14735352 -47.47290039 37.35205078 C-59.94827763 40.91382821 -72.49648469 41.43957186 -85.375 41.4375 C-86.20949677 41.43889984 -87.04399353 41.44029968 -87.90377808 41.44174194 C-101.76818 41.4226685 -114.70373192 40.1875468 -128 36 C-128.66692871 35.79713379 -129.33385742 35.59426758 -130.02099609 35.38525391 C-147.30118977 29.97190875 -159.69541306 19.21185875 -169 4 C-166 3 -166 3 -164.23046875 3.671875 C-163.21919922 4.20554688 -163.21919922 4.20554688 -162.1875 4.75 C-149.91794053 10.53450683 -135.77565947 11.10453946 -122.4296875 11.28125 C-121.3492215 11.29965942 -120.26875549 11.31806885 -119.1555481 11.33703613 C-114.56912333 11.41509447 -109.98256648 11.48336707 -105.39599609 11.55224609 C-102.03215814 11.60418806 -98.66843579 11.6613354 -95.3046875 11.71875 C-94.27536102 11.73232544 -93.24603455 11.74590088 -92.18551636 11.7598877 C-87.02349641 11.8487192 -82.11281097 12.23827195 -77 13 C-74.01778719 13.1796266 -71.03779282 13.23310358 -68.05078125 13.2734375 C-66.78090866 13.29236557 -66.78090866 13.29236557 -65.48538208 13.31167603 C-41.04614919 13.60577399 -21.62082471 12.16926307 0 0 Z " fill="#EA1C2A" transform="translate(400,230)"/>
<path d="M0 0 C6.45668033 5.47321246 13.99344175 12.89047492 16.5 21.1875 C14.86748841 26.69591008 9.17233048 29.44656943 4.5 32.1875 C-8.69650814 38.13572364 -26.1866121 39.94971095 -40.125 35.2890625 C-44.53876182 33.24189008 -48.29111654 30.8803218 -51.5 27.1875 C-52.42421019 23.979947 -52.60295178 22.37900516 -52.5 19.1875 C-52.56832031 18.23230469 -52.63664062 17.27710938 -52.70703125 16.29296875 C-53.05216222 9.91205898 -52.46067827 5.79759856 -48.7890625 0.515625 C-48.36367188 0.07734375 -47.93828125 -0.3609375 -47.5 -0.8125 C-46.84 -0.8125 -46.18 -0.8125 -45.5 -0.8125 C-45.17 -1.8025 -44.84 -2.7925 -44.5 -3.8125 C-42.828125 -4.9453125 -42.828125 -4.9453125 -40.75 -5.9375 C-40.07453125 -6.27007812 -39.3990625 -6.60265625 -38.703125 -6.9453125 C-25.82808863 -12.01314597 -10.96428215 -7.72041169 0 0 Z " fill="#2F2F2D" transform="translate(387.5,151.8125)"/>
<path d="M0 0 C2.1875 1.875 2.1875 1.875 4 4 C4.86625 4.825 5.7325 5.65 6.625 6.5 C9.89477285 9.94186616 10.98147497 11.63223553 11.046875 16.4609375 C10.94890625 17.75257813 10.8509375 19.04421875 10.75 20.375 C10.66234375 21.66148437 10.5746875 22.94796875 10.484375 24.2734375 C9.38912757 32.69977659 9.38912757 32.69977659 6.046875 35.828125 C5.28890625 36.29734375 4.5309375 36.7665625 3.75 37.25 C3.00234375 37.72953125 2.2546875 38.2090625 1.484375 38.703125 C-5.38318637 42.28807842 -11.57852134 42.33494536 -19.1875 42.3125 C-20.26064453 42.32861328 -21.33378906 42.34472656 -22.43945312 42.36132812 C-36.38006799 42.36976165 -47.63056873 38.30589986 -58 29 C-57.16553133 22.8403036 -53.63776896 18.86081197 -50 14 C-49.2575 12.948125 -48.515 11.89625 -47.75 10.8125 C-35.869211 -1.33830693 -15.86110973 -8.22427912 0 0 Z " fill="#2F2F2D" transform="translate(291,147)"/>
<path d="M0 0 C4.96029156 2.26258913 7.34763619 5.28468657 10 10 C12.82388419 19.28181199 12.1508817 31.92850142 8.34765625 40.7890625 C5.79881211 44.97064448 2.35184438 47.82407781 -2 50 C-6.9252115 50.54035594 -10.86941718 50.54435469 -15.375 48.375 C-19.53362651 44.61243316 -23.57677406 39.47459088 -24.2746582 33.74511719 C-24.30309951 31.07960817 -24.32171744 28.41568275 -24.3125 25.75 C-24.32861328 24.83347656 -24.34472656 23.91695313 -24.36132812 22.97265625 C-24.36629149 16.01401567 -23.43824276 10.55527024 -19.4140625 4.6875 C-13.530735 -0.86183947 -7.84512842 -1.27854114 0 0 Z " fill="#272520" transform="translate(221,393)"/>
<path d="M0 0 C4.13800337 2.43065645 7.6054044 5.06221189 9.75 9.4375 C10.92147697 15.98875967 10.35392052 22.04853982 6.953125 27.8203125 C4.03744682 31.73943837 0.4287283 34.16148319 -4.25 35.4375 C-10.32067989 36.10166268 -15.89066756 35.51212836 -21.25 32.4375 C-23.625 29.9375 -23.625 29.9375 -25.25 27.4375 C-25.91 26.4475 -26.57 25.4575 -27.25 24.4375 C-27.55078125 21.29296875 -27.55078125 21.29296875 -27.5625 17.625 C-27.58763672 15.82095703 -27.58763672 15.82095703 -27.61328125 13.98046875 C-27.1422036 9.38619533 -25.90654789 6.02251514 -22.53125 2.79296875 C-21.9434375 2.40753906 -21.355625 2.02210938 -20.75 1.625 C-20.1621875 1.22667969 -19.574375 0.82835937 -18.96875 0.41796875 C-13.27322375 -2.83107009 -5.89381809 -2.65732839 0 0 Z " fill="#28261F" transform="translate(416.25,407.5625)"/>
<path d="M0 0 C0 10.23 0 20.46 0 31 C1.98 31 3.96 31 6 31 C6 33.64 6 36.28 6 39 C4.02 39 2.04 39 0 39 C0 42.3 0 45.6 0 49 C-3.3 49 -6.6 49 -10 49 C-10 45.7 -10 42.4 -10 39 C-16.93 39 -23.86 39 -31 39 C-31 28.87660485 -31 28.87660485 -28.65625 25.60546875 C-28.15601318 24.88278809 -27.65577637 24.16010742 -27.14038086 23.41552734 C-26.59905518 22.68027832 -26.05772949 21.9450293 -25.5 21.1875 C-24.38544221 19.6220018 -23.27216351 18.05559217 -22.16015625 16.48828125 C-21.61504395 15.7298291 -21.06993164 14.97137695 -20.50830078 14.18994141 C-19.1553218 12.22551579 -17.95925052 10.25509078 -16.80859375 8.16796875 C-15.88240234 6.53794922 -15.88240234 6.53794922 -14.9375 4.875 C-14.43089844 3.92367188 -13.92429688 2.97234375 -13.40234375 1.9921875 C-11 0 -11 0 0 0 Z " fill="#2A281F" transform="translate(187,393)"/>
<path d="M0 0 C3.63 0 7.26 0 11 0 C11 10.23 11 20.46 11 31 C12.65 31 14.3 31 16 31 C16 33.31 16 35.62 16 38 C14.35 38 12.7 38 11 38 C11 41.63 11 45.26 11 49 C7.7 49 4.4 49 1 49 C1 45.37 1 41.74 1 38 C-5.93 38 -12.86 38 -20 38 C-20 28.99932478 -20 28.99932478 -16.89453125 24.43359375 C-16.24033203 23.45326172 -15.58613281 22.47292969 -14.91210938 21.46289062 C-14.21923828 20.46451172 -13.52636719 19.46613281 -12.8125 18.4375 C-11.80219727 16.93413086 -11.80219727 16.93413086 -10.77148438 15.40039062 C-9.45900588 13.45536152 -8.12766101 11.52290203 -6.77587891 9.60498047 C-5.00601194 7.10813707 -5.00601194 7.10813707 -3.78271484 4.72705078 C-2.69921875 2.78515625 -2.69921875 2.78515625 0 0 Z " fill="#28251F" transform="translate(256,393)"/>
<path d="M0 0 C0.66 0 1.32 0 2 0 C2.14695312 1.12277344 2.29390625 2.24554688 2.4453125 3.40234375 C3.8148508 12.8968906 5.17235123 20.68354849 12.55859375 27.421875 C17.52245126 30.89776563 23.18216177 30.88565516 29 30 C40.95744259 26.39800495 47.27965945 20.23957214 54 10 C57.79253782 11.47395575 59.28316326 13.43622449 61.375 16.875 C61.91898437 17.73867187 62.46296875 18.60234375 63.0234375 19.4921875 C64 22 64 22 63.44140625 24.1015625 C57.60051128 31.79444856 47.3998099 35.63833832 38.24609375 37.5859375 C25.19179159 39.25110721 11.05979805 39.46709616 -0.125 31.8125 C-3.16493401 29.21148694 -3.92041798 28.27619641 -5.0625 24.3125 C-5.07087452 22.87487343 -5.04635173 21.43690354 -5 20 C-5.06832031 19.04480469 -5.13664062 18.08960938 -5.20703125 17.10546875 C-5.55216222 10.72455898 -4.96067827 6.61009856 -1.2890625 1.328125 C-0.65097656 0.67070312 -0.65097656 0.67070312 0 0 Z " fill="#EBE116" transform="translate(340,151)"/>
<path d="M0 0 C4.14771521 2.44569529 6.64027943 4.62026771 8.73828125 9.05859375 C9.11889724 13.10327301 8.87260463 16.9841179 8.73828125 21.05859375 C1.47828125 21.05859375 -5.78171875 21.05859375 -13.26171875 21.05859375 C-11.92608259 26.0032301 -11.92608259 26.0032301 -9.26171875 27.05859375 C-4.21796556 27.36211164 0.83088499 27.36723275 5.73828125 26.05859375 C5.73828125 28.36859375 5.73828125 30.67859375 5.73828125 33.05859375 C-0.25360652 36.25426723 -5.51352641 36.80272976 -12.26171875 36.05859375 C-17.73132498 34.16909342 -20.46333477 31.11584651 -23.35546875 26.19921875 C-25.44007995 21.27522334 -24.46258688 15.53999622 -23.76171875 10.37109375 C-21.66137637 5.73283767 -18.39635081 2.95692989 -14.26171875 0.05859375 C-9.47048627 -1.53848374 -4.75032512 -1.97725104 0 0 Z " fill="#29271F" transform="translate(320.26171875,406.94140625)"/>
<path d="M0 0 C2 0 2 0 3.32421875 1.22265625 C7.70874001 7.13987549 7.24488633 12.27483443 6.58984375 19.4140625 C5.197429 27.87920645 5.197429 27.87920645 2.046875 30.828125 C1.28890625 31.29734375 0.5309375 31.7665625 -0.25 32.25 C-0.99765625 32.72953125 -1.7453125 33.2090625 -2.515625 33.703125 C-9.38318637 37.28807842 -15.57852134 37.33494536 -23.1875 37.3125 C-24.26064453 37.32861328 -25.33378906 37.34472656 -26.43945312 37.36132812 C-40.38006799 37.36976165 -51.63056873 33.30589986 -62 24 C-61.44011356 19.80085169 -60.04944839 17.14003726 -57.625 13.6875 C-57.01914063 12.80449219 -56.41328125 11.92148438 -55.7890625 11.01171875 C-55.19867188 10.34785156 -54.60828125 9.68398437 -54 9 C-53.01 9 -52.02 9 -51 9 C-49.53515625 10.79296875 -49.53515625 10.79296875 -48.0625 13.1875 C-47.53527344 14.01121094 -47.00804687 14.83492187 -46.46484375 15.68359375 C-45.98144531 16.44800781 -45.49804688 17.21242187 -45 18 C-40.44626719 24.67880812 -33.90174414 28.47510201 -26 30 C-20.2196649 30.56789257 -15.98407794 30.28496046 -11 27 C-7.1750358 23.70875173 -5.01593884 20.6078602 -3 16 C-2.65582031 15.23300781 -2.31164062 14.46601563 -1.95703125 13.67578125 C-0.91967409 10.77541531 -0.59666571 8.25387559 -0.375 5.1875 C-0.30023438 4.21167969 -0.22546875 3.23585937 -0.1484375 2.23046875 C-0.09945312 1.49441406 -0.05046875 0.75835937 0 0 Z " fill="#F6F074" transform="translate(295,152)"/>
<path d="M0 0 C0 4.30046719 -2.52016429 6.26018351 -5.3125 9.25 C-5.85575928 9.83265625 -6.39901855 10.4153125 -6.95874023 11.015625 C-11.76919248 16.02089742 -16.84099495 19.76406411 -23 23 C-23.83660156 23.44601562 -24.67320312 23.89203125 -25.53515625 24.3515625 C-30.97087816 27.02433074 -36.59127492 28.93489529 -42.375 30.6875 C-43.03387207 30.89004395 -43.69274414 31.09258789 -44.37158203 31.30126953 C-56.87784821 34.91365526 -69.45506432 35.43957852 -82.375 35.4375 C-83.20949677 35.43889984 -84.04399353 35.44029968 -84.90377808 35.44174194 C-98.76818 35.4226685 -111.70373192 34.1875468 -125 30 C-125.66692871 29.79713379 -126.33385742 29.59426758 -127.02099609 29.38525391 C-140.00853626 25.31666307 -154.24050062 17.20934575 -161 5 C-157.96719076 6.37854966 -155.70371579 8.01869073 -153.1875 10.1875 C-133.77307866 25.37178726 -106.95053139 28.43512637 -83.125 28.375 C-82.31318268 28.37445618 -81.50136536 28.37391235 -80.66494751 28.37335205 C-52.5535641 28.2870117 -23.29753367 23.27709637 -2.5 2.625 C-1.675 1.75875 -0.85 0.8925 0 0 Z " fill="#A71F24" transform="translate(397,236)"/>
<path d="M0 0 C7.66666667 0 15.33333333 0 23 0 C24.65 3.96 26.3 7.92 28 12 C28.9590625 9.3084375 28.9590625 9.3084375 29.9375 6.5625 C31.875 1.125 31.875 1.125 33 0 C34.99958364 -0.04080783 37.00045254 -0.04254356 39 0 C38.60086925 5.85391764 36.6680057 10.57694699 34.3203125 15.9296875 C33.11310031 18.73699159 32.08483302 21.55950367 31.0625 24.4375 C29.18661932 29.11590121 27.34241371 31.39455178 23 34 C19.6875 34.375 19.6875 34.375 17 34 C16 33 16 33 15.9375 30.4375 C15.958125 29.633125 15.97875 28.82875 16 28 C17.98 27.67 19.96 27.34 22 27 C23.36088387 20.99655799 22.52595528 17.62971197 20.0625 12.25 C17 5.31014412 17 5.31014412 17 2 C16.34 2 15.68 2 15 2 C15 3.32 15 4.64 15 6 C14.030625 6.309375 13.06125 6.61875 12.0625 6.9375 C9.15934208 7.69523342 9.15934208 7.69523342 8 9 C7.76472227 11.34987262 7.58613583 13.70556039 7.4375 16.0625 C7.35371094 17.35285156 7.26992188 18.64320313 7.18359375 19.97265625 C7.12300781 20.97167969 7.06242187 21.97070312 7 23 C4.69 23 2.38 23 0 23 C0 15.41 0 7.82 0 0 Z " fill="#322E1E" transform="translate(333,347)"/>
<path d="M0 0 C3.63 0 7.26 0 11 0 C11.33 0.99 11.66 1.98 12 3 C12.33 2.505 12.66 2.01 13 1.5 C16.17572747 -0.88179561 19.10246066 -0.19168226 23 0 C23 3.3 23 6.6 23 10 C21.01432292 9.90234375 19.02864583 9.8046875 17.04296875 9.70703125 C14.35038059 10.09315766 13.66139529 10.86953204 12 13 C11.49669238 15.41063442 11.49669238 15.41063442 11.48828125 18.10546875 C11.45283203 19.08837891 11.41738281 20.07128906 11.38085938 21.08398438 C11.34702148 22.62022461 11.34702148 22.62022461 11.3125 24.1875 C11.27833984 25.22326172 11.24417969 26.25902344 11.20898438 27.32617188 C11.12648241 29.88373264 11.06156544 32.44184963 11 35 C7.37 35 3.74 35 0 35 C0 23.45 0 11.9 0 0 Z " fill="#2A281F" transform="translate(433,407)"/>
<path d="M0 0 C3.63 0 7.26 0 11 0 C11.33 0.99 11.66 1.98 12 3 C12.33 2.505 12.66 2.01 13 1.5 C16.17572747 -0.88179561 19.10246066 -0.19168226 23 0 C23 3.3 23 6.6 23 10 C21.01432292 9.90234375 19.02864583 9.8046875 17.04296875 9.70703125 C14.35038059 10.09315766 13.66139529 10.86953204 12 13 C11.49669238 15.41063442 11.49669238 15.41063442 11.48828125 18.10546875 C11.45283203 19.08837891 11.41738281 20.07128906 11.38085938 21.08398438 C11.34702148 22.62022461 11.34702148 22.62022461 11.3125 24.1875 C11.27833984 25.22326172 11.24417969 26.25902344 11.20898438 27.32617188 C11.12648241 29.88373264 11.06156544 32.44184963 11 35 C7.37 35 3.74 35 0 35 C0 23.45 0 11.9 0 0 Z " fill="#2A281F" transform="translate(363,407)"/>
<path d="M0 0 C3.63 0 7.26 0 11 0 C11.33 1.32 11.66 2.64 12 4 C12.515625 3.34 13.03125 2.68 13.5625 2 C16.79995755 -0.65637543 18.92552281 -0.31342132 23 0 C23 2.97 23 5.94 23 9 C21.01432292 9.16276042 19.02864583 9.32552083 17.04296875 9.48828125 C14.46132197 10.134927 13.63978744 10.91320513 12 13 C11.49669238 15.41063442 11.49669238 15.41063442 11.48828125 18.10546875 C11.45283203 19.08837891 11.41738281 20.07128906 11.38085938 21.08398438 C11.34702148 22.62022461 11.34702148 22.62022461 11.3125 24.1875 C11.27833984 25.22326172 11.24417969 26.25902344 11.20898438 27.32617188 C11.12648241 29.88373264 11.06156544 32.44184963 11 35 C7.37 35 3.74 35 0 35 C0 23.45 0 11.9 0 0 Z " fill="#29271F" transform="translate(335,407)"/>
<path d="M0 0 C0.99 0.33 1.98 0.66 3 1 C5.82050909 6.84994478 6.38070034 12.40661535 6.5625 18.8125 C6.60141357 19.55371094 6.64032715 20.29492188 6.68041992 21.05859375 C6.69140625 23.20703125 6.69140625 23.20703125 6 27 C1.36021688 31.28910184 -2.39289219 31.54545667 -8.4296875 31.33984375 C-11.52970762 30.92996267 -13.59076928 29.99384611 -16 28 C-15.22567137 17.15939913 -10.22606339 9.98279693 -3 2 C-2.01 1.34 -1.02 0.68 0 0 Z " fill="#4C4C4C" transform="translate(393,40)"/>
<path d="M0 0 C2.21898709 0.71716313 3.39344984 1.39002069 5.02734375 3.04296875 C7.36293471 7.74229032 6.92747808 12.96971955 6 18 C4.94982353 20.19224337 4.16896211 21.05190156 2.1171875 22.328125 C-2.47040271 23.78396544 -7.29918037 23.94932987 -12 23 C-14.3671875 21.08984375 -14.3671875 21.08984375 -16 19 C-16 18.34 -16 17.68 -16 17 C-16.66 17 -17.32 17 -18 17 C-18.62653784 8.03702815 -18.62653784 8.03702815 -16.1875 4 C-11.02271199 -0.72209189 -6.74991063 -0.86537316 0 0 Z " fill="#2C291F" transform="translate(304,347)"/>
<path d="M0 0 C1.11761719 0.02707031 1.11761719 0.02707031 2.2578125 0.0546875 C4.08909701 0.10164351 5.91971649 0.17338348 7.75 0.25 C7.89567407 3.81206722 7.98419196 7.37336551 8.0625 10.9375 C8.10439453 11.94490234 8.14628906 12.95230469 8.18945312 13.99023438 C8.31354085 21.50995044 8.31354085 21.50995044 5.35546875 25.39453125 C1.6109911 28.06113827 -0.24754752 28.3869034 -4.8125 28.375 C-5.80378906 28.37757813 -6.79507813 28.38015625 -7.81640625 28.3828125 C-10.25 28.25 -10.25 28.25 -11.25 27.25 C-11.29063832 25.58382885 -11.292721 23.91611905 -11.25 22.25 C-10.32767578 22.39308594 -10.32767578 22.39308594 -9.38671875 22.5390625 C-8.57847656 22.64992188 -7.77023438 22.76078125 -6.9375 22.875 C-6.13699219 22.99101562 -5.33648437 23.10703125 -4.51171875 23.2265625 C-1.96276785 23.46533407 -1.96276785 23.46533407 0.75 21.25 C1.08 20.26 1.41 19.27 1.75 18.25 C1.09 18.58 0.43 18.91 -0.25 19.25 C-2.30859375 19.48828125 -2.30859375 19.48828125 -4.6875 19.5625 C-5.86119141 19.61857422 -5.86119141 19.61857422 -7.05859375 19.67578125 C-9.25 19.25 -9.25 19.25 -11.0078125 17.57421875 C-12.49854421 14.7849566 -12.68316947 12.90262942 -12.6875 9.75 C-12.70683594 8.8115625 -12.72617188 7.873125 -12.74609375 6.90625 C-12.25 4.25 -12.25 4.25 -10.73828125 1.921875 C-7.24273206 -0.42678285 -4.05092732 -0.186085 0 0 Z " fill="#2E2A1F" transform="translate(213.25,468.75)"/>
<path d="M0 0 C2.31 0 4.62 0 7 0 C7 9.24 7 18.48 7 28 C2.91625 28.0928125 2.91625 28.0928125 -1.25 28.1875 C-2.10110352 28.21481201 -2.95220703 28.24212402 -3.82910156 28.27026367 C-7.12313141 28.30654325 -9.48206307 28.2352062 -12.51171875 26.859375 C-15.19668055 23.50493454 -14.59473028 19.95098137 -14.4453125 15.83203125 C-14 13 -14 13 -11.9375 10.25 C-8.38548818 8.73850561 -5.82555333 8.63909874 -2 9 C-1.34 9.33 -0.68 9.66 0 10 C0 6.7 0 3.4 0 0 Z " fill="#34301E" transform="translate(449,460)"/>
<path d="M0 0 C7 0 7 0 9.58203125 2.484375 C10.31808594 3.56203125 11.05414063 4.6396875 11.8125 5.75 C12.56144531 6.81734375 13.31039063 7.8846875 14.08203125 8.984375 C16 12 16 12 18 16 C18.33 10.72 18.66 5.44 19 0 C20.98 0 22.96 0 25 0 C25 8.58 25 17.16 25 26 C18 26 18 26 16.19555664 24.53125 C15.77137451 23.8609375 15.34719238 23.190625 14.91015625 22.5 C14.43642578 21.778125 13.96269531 21.05625 13.47460938 20.3125 C13.00861328 19.549375 12.54261719 18.78625 12.0625 18 C11.56943359 17.236875 11.07636719 16.47375 10.56835938 15.6875 C9.3569143 13.80564358 8.17545922 11.90454152 7 10 C6.67 15.28 6.34 20.56 6 26 C4.02 26 2.04 26 0 26 C0 17.42 0 8.84 0 0 Z " fill="#2A281F" transform="translate(260,462)"/>
<path d="M0 0 C1.60875 -0.00386719 1.60875 -0.00386719 3.25 -0.0078125 C6 0.125 6 0.125 8 1.125 C8 3.105 8 5.085 8 7.125 C4.04 7.125 0.08 7.125 -4 7.125 C-4.33 8.445 -4.66 9.765 -5 11.125 C-4.13375 11.3725 -3.2675 11.62 -2.375 11.875 C2.07459725 13.52299898 5.64341652 15.76841652 9 19.125 C9.68767908 26.23101719 9.68767908 26.23101719 7.125 29.5625 C3.28559372 32.38559286 0.75601373 32.25974593 -4 32.25 C-5.8871875 32.25386719 -5.8871875 32.25386719 -7.8125 32.2578125 C-11 32.125 -11 32.125 -13 31.125 C-13 28.815 -13 26.505 -13 24.125 C-12.360625 24.455 -11.72125 24.785 -11.0625 25.125 C-6.98763159 26.45556928 -3.24809575 26.29159199 1 26.125 C0.63790024 23.73669724 0.63790024 23.73669724 -1 21.125 C-3.20359026 19.70961703 -5.44467527 18.55908377 -7.80859375 17.43359375 C-10.30176196 15.94480346 -11.50590304 14.60267176 -13 12.125 C-13.5 8.625 -13.5 8.625 -13 5.125 C-8.74575267 0.87075267 -5.87543887 -0.01412365 0 0 Z " fill="#2B281F" transform="translate(274,337.875)"/>
<path d="M0 0 C3.65639293 5.77560843 3.04303976 13.50560151 2 20 C-2.65360902 27.11190372 -13.17337649 30.14342056 -20.94921875 32.62109375 C-34.62405514 35.14768257 -49.38697016 32.52460701 -61 25 C-64.35045747 22.29241742 -67.58056842 19.58675841 -70 16 C-69.73046875 13.7265625 -69.73046875 13.7265625 -69 12 C-68.34 12.721875 -67.68 13.44375 -67 14.1875 C-61.29606795 19.84336521 -54.6600093 22.86901997 -47 25 C-46.4107373 25.17200928 -45.82147461 25.34401855 -45.21435547 25.52124023 C-40.52516026 26.53507836 -35.6530867 26.27102355 -30.875 26.3125 C-29.78445313 26.34150391 -28.69390625 26.37050781 -27.5703125 26.40039062 C-18.79009233 26.46865789 -12.5984411 24.55270142 -4.98828125 20.328125 C-1.99446139 16.82259133 -1.73726858 13.23218969 -1.1875 8.75 C-1.06697266 7.90953125 -0.94644531 7.0690625 -0.82226562 6.203125 C-0.52893238 4.13805893 -0.261855 2.06929317 0 0 Z " fill="#4D4D45" transform="translate(302,162)"/>
<path d="M0 0 C2.5 0.625 2.5 0.625 4.625 2.4453125 C7.44586529 7.22902989 7.08166817 11.67364991 7 17.125 C7.01546875 18.15753906 7.0309375 19.19007813 7.046875 20.25390625 C7.02316122 24.8484504 6.99144885 27.78984475 4.62890625 31.8046875 C2.5 33.625 2.5 33.625 -0.0625 34.25 C-2.5 33.625 -2.5 33.625 -4.25 31.25 C-4.6625 30.38375 -5.075 29.5175 -5.5 28.625 C-5.83 27.965 -6.16 27.305 -6.5 26.625 C-6.79259649 23.1941548 -6.77791989 19.75437345 -6.8125 16.3125 C-6.84150391 15.36181641 -6.87050781 14.41113281 -6.90039062 13.43164062 C-6.94064778 9.00025663 -6.94289854 6.36873528 -4.63671875 2.49609375 C-2.5 0.625 -2.5 0.625 0 0 Z " fill="#ECC00A" transform="translate(214.5,400.375)"/>
<path d="M0 0 C3.5578125 -0.0928125 3.5578125 -0.0928125 7.1875 -0.1875 C8.29387817 -0.22846802 8.29387817 -0.22846802 9.42260742 -0.27026367 C13.827366 -0.32558339 16.5179177 0.29171377 20 3 C21.44430855 5.88861709 21.37688506 7.79647701 21 11 C18.44975635 14.10164769 16.82300753 15.72566416 13 17 C10.66700175 17.03954234 8.33291811 17.04401732 6 17 C6 19.97 6 22.94 6 26 C4.02 26 2.04 26 0 26 C0 17.42 0 8.84 0 0 Z " fill="#272520" transform="translate(156,462)"/>
<path d="M0 0 C5.41028984 0.84239162 7.87040101 4.82478093 11 9 C14.58182266 14.41972584 15.46148102 18.53926566 15 25 C12.10978027 26.63189277 9.88198488 27.33969889 6.5625 27.4375 C5.45068359 27.49744141 5.45068359 27.49744141 4.31640625 27.55859375 C0.66417457 26.67787009 -0.75945668 24.96141378 -3 22 C-3.45356146 19.11451363 -3.61663651 16.91744366 -3.5 14.0625 C-3.50257813 13.37220703 -3.50515625 12.68191406 -3.5078125 11.97070312 C-3.4189154 7.28138102 -2.36582675 4.02064705 0 0 Z " fill="#4C4C4C" transform="translate(234,44)"/>
<path d="M0 0 C0.33 0 0.66 0 1 0 C1.0515625 1.22976562 1.103125 2.45953125 1.15625 3.7265625 C1.46929489 12.45883312 1.46929489 12.45883312 4.52734375 20.42578125 C6.6247836 22.08571831 8.50236507 23.04793124 11 24 C11.76054687 24.32871094 12.52109375 24.65742188 13.3046875 24.99609375 C26.37137553 29.57554049 43.30580492 28.28755777 55.80859375 22.7578125 C58.2435605 21.56330051 60.62290083 20.30482074 63 19 C64.33058804 18.32787077 65.66304036 17.65936419 67 17 C67.495 17.99 67.495 17.99 68 19 C59.91075574 27.84761091 49.50052993 32.71508546 37.44140625 33.31640625 C25.65552873 33.5709426 16.38936509 31.94399656 6 26 C5.27683594 25.63777344 4.55367188 25.27554688 3.80859375 24.90234375 C1.45135029 23.42132816 0.34975445 22.46003633 -1 20 C-1.79472498 13.44688642 -1.97924762 6.36657983 0 0 Z " fill="#4B4B48" transform="translate(334,161)"/>
<path d="M0 0 C3.625 1.3125 3.625 1.3125 6 4 C6.79291704 7.81410461 6.75438596 11.18164645 6 15 C3.40063795 18.52171633 0.7224177 19.25514987 -3.4375 20 C-7.09014036 20.27440537 -8.064608 19.96654228 -11.5 18.1875 C-13.98528778 16.01287319 -14.83387711 15.20795071 -15.2734375 12.01171875 C-15.45602853 7.83319314 -15.35549816 5.580647 -13.125 1.9375 C-8.68235567 -0.81693949 -5.09049232 -0.82811837 0 0 Z " fill="#2B281F" transform="translate(305,469)"/>
<path d="M0 0 C3.625 1.3125 3.625 1.3125 6 4 C6.79291704 7.81410461 6.75438596 11.18164645 6 15 C3.40063795 18.52171633 0.7224177 19.25514987 -3.4375 20 C-7.09014036 20.27440537 -8.064608 19.96654228 -11.5 18.1875 C-13.98528778 16.01287319 -14.83387711 15.20795071 -15.2734375 12.01171875 C-15.45602853 7.83319314 -15.35549816 5.580647 -13.125 1.9375 C-8.68235567 -0.81693949 -5.09049232 -0.82811837 0 0 Z " fill="#2A281F" transform="translate(377,469)"/>
<path d="M0 0 C0.598125 0.20625 1.19625 0.4125 1.8125 0.625 C1.8125 1.945 1.8125 3.265 1.8125 4.625 C-7.82896169 13.89866751 -23.00411612 13.99320236 -35.44921875 13.8515625 C-42.26826376 13.63791802 -48.46853283 12.43764478 -54.1875 8.625 C-53.8575 6.975 -53.5275 5.325 -53.1875 3.625 C-50.2175 4.12 -50.2175 4.12 -47.1875 4.625 C-46.8575 5.615 -46.5275 6.605 -46.1875 7.625 C-41.60437916 7.74105098 -37.02163551 7.81220362 -32.4375 7.875 C-30.48457031 7.92527344 -30.48457031 7.92527344 -28.4921875 7.9765625 C-27.24179687 7.98945313 -25.99140625 8.00234375 -24.703125 8.015625 C-23.55102539 8.03657227 -22.39892578 8.05751953 -21.21191406 8.07910156 C-17.5489685 7.52912749 -16.5484716 6.37996559 -14.1875 3.625 C-11.93359375 2.8671875 -11.93359375 2.8671875 -9.625 2.5 C-6.13496427 1.92323187 -3.25544068 -0.55807555 0 0 Z " fill="#F5EF79" transform="translate(396.1875,175.375)"/>
<path d="M0 0 C2.31 0 4.62 0 7 0 C7 4.95 7 9.9 7 15 C8.65 14.67 10.3 14.34 12 14 C12.33 9.38 12.66 4.76 13 0 C15.31 0 17.62 0 20 0 C20 6.27 20 12.54 20 19 C17.03 19 14.06 19 11 19 C9.741875 19.268125 8.48375 19.53625 7.1875 19.8125 C5.6096875 19.9053125 5.6096875 19.9053125 4 20 C0.86615152 17.12964146 0.05077978 15.49002487 -0.390625 11.23046875 C-0.36431837 9.88225415 -0.31701804 8.53430482 -0.25 7.1875 C-0.23195313 6.49462891 -0.21390625 5.80175781 -0.1953125 5.08789062 C-0.14851064 3.39132336 -0.07677624 1.69547524 0 0 Z " fill="#39331E" transform="translate(387,469)"/>
<path d="M0 0 C1.56091166 -0.10911227 3.12408492 -0.18609398 4.6875 -0.25 C5.55761719 -0.29640625 6.42773438 -0.3428125 7.32421875 -0.390625 C11.02036688 0.14895867 12.52557789 1.2074379 15 4 C15.37398847 6.81239326 15.48293015 8.97592155 15.3125 11.75 C15.28994141 12.44738281 15.26738281 13.14476562 15.24414062 13.86328125 C15.18547048 15.57644935 15.09579256 17.28850623 15 19 C13.824375 18.979375 12.64875 18.95875 11.4375 18.9375 C8.50212975 18.91668177 6.12173615 19.15837545 3.1875 19.6875 C0 20 0 20 -1.9375 19 C-3.62156654 15.8299924 -3.50158769 13.51111382 -3 10 C-0.05053792 7.2292932 1.76588326 7.01151394 5.8125 6.8125 C6.864375 6.874375 7.91625 6.93625 9 7 C8.67 6.34 8.34 5.68 8 5 C5.03 5 2.06 5 -1 5 C-0.67 3.35 -0.34 1.7 0 0 Z " fill="#2D2A1F" transform="translate(182,469)"/>
<path d="M0 0 C2 0 2 0 3.32421875 1.22265625 C7.70874001 7.13987549 7.24488633 12.27483443 6.58984375 19.4140625 C5.15781087 28.12006374 5.15781087 28.12006374 0.875 31.375 C-0.548125 32.179375 -0.548125 32.179375 -2 33 C-2.66 31.68 -3.32 30.36 -4 29 C-7.93075644 29.57452746 -7.93075644 29.57452746 -11 32 C-13.625 32.125 -13.625 32.125 -16 32 C-16.33 31.34 -16.66 30.68 -17 30 C-16.113125 29.608125 -15.22625 29.21625 -14.3125 28.8125 C-8.58329179 25.67765023 -5.59508882 21.93163158 -3 16 C-2.65582031 15.23300781 -2.31164062 14.46601563 -1.95703125 13.67578125 C-0.91967409 10.77541531 -0.59666571 8.25387559 -0.375 5.1875 C-0.30023438 4.21167969 -0.22546875 3.23585937 -0.1484375 2.23046875 C-0.09945313 1.49441406 -0.05046875 0.75835937 0 0 Z " fill="#E9DF14" transform="translate(295,152)"/>
<path d="M0 0 C3 1.5625 3 1.5625 5 4 C5.3125 7.75 5.3125 7.75 5 11 C0.71 11 -3.58 11 -8 11 C-7.01 12.485 -7.01 12.485 -6 14 C-3.56306689 14.36416047 -3.56306689 14.36416047 -0.875 14.1875 C0.49011719 14.14689453 0.49011719 14.14689453 1.8828125 14.10546875 C2.58148438 14.07066406 3.28015625 14.03585937 4 14 C3.625 16.4375 3.625 16.4375 3 19 C-0.74393425 20.87196713 -5.36823735 20.48511863 -9.3125 19.3125 C-12.22168708 17.04979894 -13.65279611 14.69820517 -14.39453125 11.0703125 C-14.73959974 6.81714274 -14.32269347 5.38723217 -11.5 2 C-7.60756702 -0.71458092 -4.63860763 -0.66265823 0 0 Z " fill="#29271F" transform="translate(239,469)"/>
<path d="M0 0 C-1.01362279 5.15722363 -4.2294446 8.28655929 -7.9375 11.875 C-11.01943581 13.5560559 -12.5176662 13.66967958 -16 13 C-20.59526142 9.93935014 -24.65449503 6.550208 -26 1 C-18.36850512 -4.08766325 -8.36696691 -2.47910131 0 0 Z " fill="#2D2D2D" transform="translate(332,202)"/>
<path d="M0 0 C2.5 1.4375 2.5 1.4375 4 4 C4.71448609 8.90980185 4.47078591 13.60749172 2 18 C-1.11549872 19.55774936 -4.6044388 19.56480622 -8 19 C-9.73046875 17.890625 -9.73046875 17.890625 -11 16 C-11.3984375 12.96875 -11.3984375 12.96875 -11.375 9.5 C-11.38660156 7.78296875 -11.38660156 7.78296875 -11.3984375 6.03125 C-11 3 -11 3 -9.72265625 1.12109375 C-6.70299248 -0.84408426 -3.41713081 -0.59129427 0 0 Z " fill="#F0C30A" transform="translate(411,415)"/>
<path d="M0 0 C1.98 0 3.96 0 6 0 C6 0.66 6 1.32 6 2 C6.99 1.34 7.98 0.68 9 0 C15.08044249 -0.54289665 15.08044249 -0.54289665 17.70703125 1.0078125 C19.76381132 4.1768694 19.31162115 7.54343041 19.1875 11.1875 C19.16719727 12.31188477 19.16719727 12.31188477 19.14648438 13.45898438 C19.11118539 15.30629767 19.05737917 17.15324066 19 19 C17.02 19 15.04 19 13 19 C12.67 14.71 12.34 10.42 12 6 C10.68 5.67 9.36 5.34 8 5 C6.12175109 6.87824891 6.60897603 10.03935276 6.4375 12.5625 C6.31181641 14.35880859 6.31181641 14.35880859 6.18359375 16.19140625 C6.12300781 17.11824219 6.06242187 18.04507812 6 19 C4.02 19 2.04 19 0 19 C0 12.73 0 6.46 0 0 Z " fill="#2A271F" transform="translate(412,469)"/>
<path d="M0 0 C0.99 0 1.98 0 3 0 C4.46484375 1.79296875 4.46484375 1.79296875 5.9375 4.1875 C6.46472656 5.01121094 6.99195313 5.83492187 7.53515625 6.68359375 C8.26025391 7.83021484 8.26025391 7.83021484 9 9 C13.65902657 15.83323897 20.08833411 19.1869099 28 21 C28 21.33 28 21.66 28 22 C25.93867858 22.10864945 23.87568679 22.18588321 21.8125 22.25 C20.08966797 22.31960937 20.08966797 22.31960937 18.33203125 22.390625 C14.3326567 21.92176515 12.96387154 20.62963727 10 18 C7.08271305 16.70620322 4.07082655 15.85983143 1 15 C0.05125 14.731875 -0.8975 14.46375 -1.875 14.1875 C-4.30277016 13.7499628 -4.30277016 13.7499628 -7 16 C-7.7109375 14.35546875 -7.7109375 14.35546875 -8 12 C-6.6015625 9.23828125 -6.6015625 9.23828125 -4.625 6.3125 C-3.97789062 5.33925781 -3.33078125 4.36601562 -2.6640625 3.36328125 C-1 1 -1 1 0 0 Z " fill="#ECE215" transform="translate(241,161)"/>
<path d="M0 0 C4.95 0 9.9 0 15 0 C15 1.32 15 2.64 15 4 C12.03 4 9.06 4 6 4 C6 6.31 6 8.62 6 11 C8.97 11 11.94 11 15 11 C15 12.65 15 14.3 15 16 C12.03 16 9.06 16 6 16 C6 19.3 6 22.6 6 26 C4.02 26 2.04 26 0 26 C0 17.42 0 8.84 0 0 Z " fill="#252320" transform="translate(343,462)"/>
<path d="M0 0 C5 0 10 0 15 0 C15 1.98 15 3.96 15 6 C14.030625 6.309375 13.06125 6.61875 12.0625 6.9375 C9.15934208 7.69523342 9.15934208 7.69523342 8 9 C7.76472227 11.34987262 7.58613583 13.70556039 7.4375 16.0625 C7.35371094 17.35285156 7.26992188 18.64320313 7.18359375 19.97265625 C7.12300781 20.97167969 7.06242187 21.97070312 7 23 C4.69 23 2.38 23 0 23 C0 15.41 0 7.82 0 0 Z " fill="#222120" transform="translate(315,347)"/>
<path d="M0 0 C0 1.65 0 3.3 0 5 C1.32 5 2.64 5 4 5 C4 6.32 4 7.64 4 9 C2.68 9 1.36 9 0 9 C0.33 12.3 0.66 15.6 1 19 C2.32 19.33 3.64 19.66 5 20 C5 21.32 5 22.64 5 24 C2.20129973 25.39935013 0.09501208 25.25265405 -3 25 C-4.6796875 23.90234375 -4.6796875 23.90234375 -6 22 C-6.29296875 18.86328125 -6.29296875 18.86328125 -6.1875 15.3125 C-6.16042969 14.13300781 -6.13335937 12.95351563 -6.10546875 11.73828125 C-6.07066406 10.83464844 -6.03585937 9.93101562 -6 9 C-6.99 9 -7.98 9 -9 9 C-9 7.68 -9 6.36 -9 5 C-8.01 5 -7.02 5 -6 5 C-6 3.68 -6 2.36 -6 1 C-3 0 -3 0 0 0 Z " fill="#2C291F" transform="translate(323,464)"/>
<path d="M0 0 C1.32 0 2.64 0 4 0 C4.11627503 3.58305992 4.1872736 7.16563417 4.25 10.75 C4.30027344 12.27367187 4.30027344 12.27367187 4.3515625 13.828125 C4.45080252 21.37036672 4.45080252 21.37036672 2.109375 24.640625 C-1.38061297 26.88972836 -3.4101043 27.13582763 -7.5625 27.125 C-8.55378906 27.12757813 -9.54507813 27.13015625 -10.56640625 27.1328125 C-13 27 -13 27 -14 26 C-14.04063832 24.33382885 -14.042721 22.66611905 -14 21 C-13.39671875 21.10699219 -12.7934375 21.21398437 -12.171875 21.32421875 C-7.20799098 22.15737352 -7.20799098 22.15737352 -2.5 20.8125 C-0.87496604 18.84891729 -0.3457635 17.50678535 0 15 C-0.66 14.67 -1.32 14.34 -2 14 C-1.67 13.34 -1.34 12.68 -1 12 C-0.9549714 10.33394172 -0.96125079 8.66621616 -1 7 C-1.11111111 2.22222222 -1.11111111 2.22222222 0 0 Z " fill="#222120" transform="translate(216,470)"/>
<path d="M0 0 C0 0.99 0 1.98 0 3 C-0.825 3.4125 -1.65 3.825 -2.5 4.25 C-3.325 4.8275 -4.15 5.405 -5 6 C-5.75 9.5 -5.75 9.5 -5 13 C-3.0995533 14.84315671 -3.0995533 14.84315671 -1 16 C-1 16.66 -1 17.32 -1 18 C-7.32851486 19.3387243 -7.32851486 19.3387243 -10.19921875 17.890625 C-12.67891595 15.28721188 -12.5668893 13.61344165 -12.5625 10.0625 C-12.35999047 4.47998729 -12.35999047 4.47998729 -9.9375 1.25 C-6.42537612 -0.2445208 -3.78041318 -0.29650299 0 0 Z " fill="#2A281F" transform="translate(447,469)"/>
<path d="M0 0 C0.33 0 0.66 0 1 0 C1 6.27 1 12.54 1 19 C-2.96 19 -6.92 19 -11 19 C-9.68477288 15.7119322 -8.70807035 13.30678356 -6.87109375 10.44921875 C-6.27844727 9.52592773 -6.27844727 9.52592773 -5.67382812 8.58398438 C-5.26583984 7.95814453 -4.85785156 7.33230469 -4.4375 6.6875 C-4.02564453 6.04232422 -3.61378906 5.39714844 -3.18945312 4.73242188 C-2.15659145 3.13495169 -1.08192254 1.56465902 0 0 Z " fill="#EABF0B" transform="translate(256,405)"/>
<path d="M0 0 C0.33 0 0.66 0 1 0 C1 5.94 1 11.88 1 18 C-2.96 18 -6.92 18 -11 18 C-9.02819956 14.05639911 -6.81758944 10.44985467 -4.4375 6.75 C-3.8197168 5.77546875 -3.8197168 5.77546875 -3.18945312 4.78125 C-2.1546628 3.16894166 -1.08068976 1.58190987 0 0 Z " fill="#E3BA0B" transform="translate(176,406)"/>
<path d="M0 0 C2.5 0.25 2.5 0.25 4.5 2.25 C4.765625 4.34375 4.765625 4.34375 4.75 6.75 C4.75515625 7.5440625 4.7603125 8.338125 4.765625 9.15625 C4.5 11.25 4.5 11.25 2.5 13.25 C0 13.5 0 13.5 -2.5 13.25 C-4.5 11.25 -4.5 11.25 -4.765625 9.15625 C-4.75789063 7.96515625 -4.75789063 7.96515625 -4.75 6.75 C-4.75515625 5.9559375 -4.7603125 5.161875 -4.765625 4.34375 C-4.35119662 1.07707925 -3.20036774 0.32003677 0 0 Z " fill="#EDC10A" transform="translate(298.5,351.75)"/>
<path d="M0 0 C5.56818182 0.56818182 5.56818182 0.56818182 7 2 C7.1875 5.4375 7.1875 5.4375 7 9 C5 11 5 11 2.5 11.25 C0 11 0 11 -2 9 C-2.25 5.5 -2.25 5.5 -2 2 C-1.34 1.34 -0.68 0.68 0 0 Z " fill="#E2B90C" transform="translate(298,473)"/>
<path d="M0 0 C2.375 0.6875 2.375 0.6875 3.375 1.6875 C3.5625 5.125 3.5625 5.125 3.375 8.6875 C1.375 10.6875 1.375 10.6875 -1.125 10.9375 C-3.625 10.6875 -3.625 10.6875 -5.625 8.6875 C-5.9375 5.1875 -5.9375 5.1875 -5.625 1.6875 C-2.625 -0.3125 -2.625 -0.3125 0 0 Z " fill="#E2B90B" transform="translate(373.625,473.3125)"/>
<path d="M0 0 C2.61580479 0.3269756 4.64078137 0.82039068 7 2 C7.1875 4.875 7.1875 4.875 7 8 C4 10 4 10 1.4375 9.75 C-1 9 -1 9 -3 7 C-2.67028521 3.70285207 -2.3773161 2.3773161 0 0 Z " fill="#E6E6E6" transform="translate(270,154)"/>
<path d="M0 0 C1.2065625 0.0309375 1.2065625 0.0309375 2.4375 0.0625 C2.625 2.4375 2.625 2.4375 2.4375 5.0625 C1.4475 5.7225 0.4575 6.3825 -0.5625 7.0625 C-0.2325 7.7225 0.0975 8.3825 0.4375 9.0625 C-2.9375 9.6875 -2.9375 9.6875 -6.5625 10.0625 C-8.5625 8.0625 -8.5625 8.0625 -8.6875 5.4375 C-8.64625 4.65375 -8.605 3.87 -8.5625 3.0625 C-7.758125 2.753125 -6.95375 2.44375 -6.125 2.125 C-1.0625 0.02591463 -1.0625 0.02591463 0 0 Z " fill="#3F381D" transform="translate(188.5625,478.9375)"/>
<path d="M0 0 C4.55555556 0.55555556 4.55555556 0.55555556 6 2 C6.1875 5.4375 6.1875 5.4375 6 9 C5.34 9.66 4.68 10.32 4 11 C-0.55555556 10.44444444 -0.55555556 10.44444444 -2 9 C-2.1875 5.5625 -2.1875 5.5625 -2 2 C-1.34 1.34 -0.68 0.68 0 0 Z " fill="#E5BC0B" transform="translate(209,473)"/>
<path d="M0 0 C1.875 0.6875 1.875 0.6875 2.875 1.6875 C3.0625 5.125 3.0625 5.125 2.875 8.6875 C2.215 9.3475 1.555 10.0075 0.875 10.6875 C-3.68055556 10.13194444 -3.68055556 10.13194444 -5.125 8.6875 C-5.375 5.25 -5.375 5.25 -5.125 1.6875 C-2.125 -0.3125 -2.125 -0.3125 0 0 Z " fill="#E6BC0B" transform="translate(446.125,473.3125)"/>
<path d="M0 0 C6.30162703 0.59449312 6.30162703 0.59449312 8.9375 2.125 C10.58420065 5.03094231 10.18462917 7.73821805 10 11 C5.71 11 1.42 11 -3 11 C-2.67 10.34 -2.34 9.68 -2 9 C0.31 9 2.62 9 5 9 C3.75023244 5.34683329 3.32901247 4.21934164 0 2 C0 1.34 0 0.68 0 0 Z " fill="#212020" transform="translate(234,469)"/>
<path d="M0 0 C2.4375 0.6875 2.4375 0.6875 4.4375 1.6875 C4.5625 4.0625 4.5625 4.0625 4.4375 6.6875 C2.4375 8.6875 2.4375 8.6875 -0.5625 8.9375 C-3.5625 8.6875 -3.5625 8.6875 -5.5625 6.6875 C-5.875 4.1875 -5.875 4.1875 -5.5625 1.6875 C-2.5625 -0.3125 -2.5625 -0.3125 0 0 Z " fill="#EBEBEB" transform="translate(362.5625,154.3125)"/>
<path d="M0 0 C3.0625 0.25 3.0625 0.25 6.0625 2.25 C6.0625 3.9 6.0625 5.55 6.0625 7.25 C2.1025 7.25 -1.8575 7.25 -5.9375 7.25 C-4.56520563 0.38852814 -4.56520563 0.38852814 0 0 Z " fill="#EBC00B" transform="translate(312.9375,413.75)"/>
<path d="M0 0 C5 0 10 0 15 0 C15 1.98 15 3.96 15 6 C13.02 6 11.04 6 9 6 C9 5.01 9 4.02 9 3 C8.34 3 7.68 3 7 3 C7 2.34 7 1.68 7 1 C5.02 1 3.04 1 1 1 C1 8.26 1 15.52 1 23 C0.67 23 0.34 23 0 23 C0 15.41 0 7.82 0 0 Z " fill="#4E441B" transform="translate(315,347)"/>
<path d="M0 0 C0 0.66 0 1.32 0 2 C-0.64066406 2.29132813 -1.28132813 2.58265625 -1.94140625 2.8828125 C-7.5393842 5.53580354 -12.83671956 8.29907739 -17 13 C-17 13.66 -17 14.32 -17 15 C-18.6436814 16.68933922 -20.3142876 18.35259924 -22 20 C-23.35555293 21.64864545 -24.69631653 23.31003995 -26 25 C-26.33 24.34 -26.66 23.68 -27 23 C-21.6582029 14.37094315 -11.53754647 0 0 0 Z " fill="#3F3F40" transform="translate(260,146)"/>
<path d="M0 0 C6.875 0.875 6.875 0.875 8 2 C8.25 4.4375 8.25 4.4375 8 7 C4.77208445 9.1519437 3.71599191 9.20086443 0 9 C0 6.03 0 3.06 0 0 Z " fill="#D5AE0D" transform="translate(162,466)"/>
<path d="M0 0 C9.09472298 2.75112032 19.24303612 8.39131536 24 17 C23.671875 19.23828125 23.671875 19.23828125 23 21 C22.5153125 20.34773438 22.030625 19.69546875 21.53125 19.0234375 C15.53846045 11.20976189 9.82982653 6.30723246 1 2 C0.67 1.34 0.34 0.68 0 0 Z " fill="#3E3E40" transform="translate(376,145)"/>
<path d="M0 0 C3.125 0.375 3.125 0.375 6 1 C6.042721 2.66611905 6.04063832 4.33382885 6 6 C5 7 5 7 1.9375 7.0625 C0.968125 7.041875 -0.00125 7.02125 -1 7 C-1.625 4.625 -1.625 4.625 -2 2 C-1.34 1.34 -0.68 0.68 0 0 Z " fill="#332F1E" transform="translate(401,363)"/>
<path d="M0 0 C2.625 0.375 2.625 0.375 5 1 C5.38218767 2.65614657 5.71395102 4.32457024 6 6 C5 7 5 7 1.9375 7.0625 C0.968125 7.041875 -0.00125 7.02125 -1 7 C-1.625 4.625 -1.625 4.625 -2 2 C-1.34 1.34 -0.68 0.68 0 0 Z " fill="#3D361D" transform="translate(389,363)"/>
<path d="M0 0 C2.625 0.375 2.625 0.375 5 1 C5.38218767 2.65614657 5.71395102 4.32457024 6 6 C5 7 5 7 1.9375 7.0625 C0.968125 7.041875 -0.00125 7.02125 -1 7 C-1.625 4.625 -1.625 4.625 -2 2 C-1.34 1.34 -0.68 0.68 0 0 Z " fill="#312D1F" transform="translate(377,363)"/>
<path d="M0 0 C0.66 0 1.32 0 2 0 C2 1.32 2 2.64 2 4 C2.66 3.67 3.32 3.34 4 3 C6.3329866 2.95977609 8.66706666 2.95679753 11 3 C11.33 3.99 11.66 4.98 12 6 C8.37 6.33 4.74 6.66 1 7 C0.67 4.69 0.34 2.38 0 0 Z " fill="#E0B70C" transform="translate(179,470)"/>
<path d="M0 0 C-0.3125 1.875 -0.3125 1.875 -1 4 C-4.4352048 6.29013653 -5.985331 6.17842973 -10 6 C-10.33 4.68 -10.66 3.36 -11 2 C-9.5422647 1.664061 -8.08378894 1.33133376 -6.625 1 C-5.40683594 0.7215625 -5.40683594 0.7215625 -4.1640625 0.4375 C-2 0 -2 0 0 0 Z " fill="#DEB70C" transform="translate(215,487)"/>
<path d="M0 0 C0 1.65 0 3.3 0 5 C-3.75 6.125 -3.75 6.125 -6 5 C-6 3.35 -6 1.7 -6 0 C-3.50907189 -1.24546405 -2.58919267 -0.7767578 0 0 Z " fill="#DCDCDC" transform="translate(360,148)"/>
<path d="M0 0 C0.66 0 1.32 0 2 0 C2.33 3.96 2.66 7.92 3 12 C1 9 1 9 1 6 C-0.65 6.66 -2.3 7.32 -4 8 C-2.87548273 5.0280615 -1.77706209 2.66559313 0 0 Z " fill="#C3BB1A" transform="translate(340,151)"/>
<path d="M0 0 C4.29 0 8.58 0 13 0 C11.02 0.99 11.02 0.99 9 2 C9.33 2.66 9.66 3.32 10 4 C7.36 4 4.72 4 2 4 C1.34 2.68 0.68 1.36 0 0 Z " fill="#CDA90E" transform="translate(231,480)"/>
<path d="M0 0 C1.65 0.33 3.3 0.66 5 1 C4.67 2.65 4.34 4.3 4 6 C2.35 5.67 0.7 5.34 -1 5 C-0.67 3.35 -0.34 1.7 0 0 Z " fill="#EAEAEA" transform="translate(274,148)"/>
<path d="M0 0 C0.99 0.33 1.98 0.66 3 1 C2.06558465 2.27310312 1.12732889 3.543388 0.1875 4.8125 C-0.33457031 5.52019531 -0.85664063 6.22789062 -1.39453125 6.95703125 C-2.83128877 8.78531393 -4.31815763 10.39896688 -6 12 C-6.33 11.34 -6.66 10.68 -7 10 C-6.02223933 8.51990357 -5.0427506 7.04094856 -4.0625 5.5625 C-3.51722656 4.73878906 -2.97195312 3.91507813 -2.41015625 3.06640625 C-1 1 -1 1 0 0 Z " fill="#48483A" transform="translate(240,159)"/>
<path d="M0 0 C-0.375 2.4375 -0.375 2.4375 -1 5 C-4.21451269 6.60725635 -7.43612536 6.05748185 -11 6 C-11 5.67 -11 5.34 -11 5 C-8.69 5 -6.38 5 -4 5 C-4 4.34 -4 3.68 -4 3 C-5.65 2.67 -7.3 2.34 -9 2 C-9 1.67 -9 1.34 -9 1 C-2.25 0 -2.25 0 0 0 Z " fill="#5E501A" transform="translate(243,483)"/>
<path d="M0 0 C1.65 0 3.3 0 5 0 C5.33 1.32 5.66 2.64 6 4 C3.36 4 0.72 4 -2 4 C-1.34 2.68 -0.68 1.36 0 0 Z " fill="#CCA80E" transform="translate(233,473)"/>
<path d="M0 0 C3.79235994 1.48985569 5.80565887 3.58658047 8 7 C7.60546875 9.1640625 7.60546875 9.1640625 7 11 C5.82750647 9.54634731 4.66216184 8.08692581 3.5 6.625 C2.52546875 5.40683594 2.52546875 5.40683594 1.53125 4.1640625 C0 2 0 2 0 0 Z " fill="#44443B" transform="translate(392,155)"/>
<path d="M0 0 C0.33 0 0.66 0 1 0 C1 6.27 1 12.54 1 19 C0.67 19 0.34 19 0 19 C0 14.38 0 9.76 0 5 C-0.66 5 -1.32 5 -2 5 C-1.34 3.35 -0.68 1.7 0 0 Z " fill="#B09411" transform="translate(256,405)"/>
<path d="M0 0 C0.66 0 1.32 0 2 0 C2 1.32 2 2.64 2 4 C5.3 4.33 8.6 4.66 12 5 C12 5.33 12 5.66 12 6 C10.18757948 6.02687279 8.37504767 6.04633715 6.5625 6.0625 C5.55316406 6.07410156 4.54382813 6.08570313 3.50390625 6.09765625 C1 6 1 6 0 5 C-0.04063832 3.33382885 -0.042721 1.66611905 0 0 Z " fill="#453D1C" transform="translate(202,491)"/>
<path d="M0 0 C1.27875 0.103125 2.5575 0.20625 3.875 0.3125 C4.95394531 0.39951172 4.95394531 0.39951172 6.0546875 0.48828125 C8 1 8 1 10 4 C3.375 4.125 3.375 4.125 0 3 C0 2.01 0 1.02 0 0 Z " fill="#1A1B21" transform="translate(204,492)"/>
<path d="M0 0 C1.65 0 3.3 0 5 0 C4.67 1.32 4.34 2.64 4 4 C2.35 4 0.7 4 -1 4 C-0.67 2.68 -0.34 1.36 0 0 Z " fill="#E6BE0B" transform="translate(185,480)"/>
<path d="M0 0 C1.32 0 2.64 0 4 0 C4 1.65 4 3.3 4 5 C2.68 5 1.36 5 0 5 C0 3.35 0 1.7 0 0 Z " fill="#1D1D21" transform="translate(389,365)"/>
<path d="M0 0 C2.31 0 4.62 0 7 0 C7 0.99 7 1.98 7 3 C4.36 3 1.72 3 -1 3 C-0.67 2.01 -0.34 1.02 0 0 Z " fill="#191A21" transform="translate(350,474)"/>
<path d="M0 0 C1.4606285 2.64738916 2 3.89448334 2 7 C1.34 7 0.68 7 0 7 C0 8.98 0 10.96 0 13 C-0.33 13 -0.66 13 -1 13 C-1.07654536 8.48382401 -1.10228696 4.40914783 0 0 Z " fill="#525138" transform="translate(302,162)"/>
<path d="M0 0 C-0.375 1.9375 -0.375 1.9375 -1 4 C-1.99 4.495 -1.99 4.495 -3 5 C-3 4.01 -3 3.02 -3 2 C-4.98 2 -6.96 2 -9 2 C-9 1.67 -9 1.34 -9 1 C-2.25 0 -2.25 0 0 0 Z " fill="#BA9B10" transform="translate(215,487)"/>
</svg>
